<svg width="70" height="70" viewBox="0 0 70 70" fill="none" xmlns="http://www.w3.org/2000/svg">
<path d="M49.0233 30.94C49.2945 30.6688 49.5096 30.3469 49.6564 29.9926C49.8031 29.6383 49.8787 29.2585 49.8787 28.875C49.8787 28.4915 49.8031 28.1117 49.6564 27.7574C49.5096 27.4031 49.2945 27.0812 49.0233 26.81C48.7522 26.5388 48.4302 26.3237 48.0759 26.1769C47.7216 26.0302 47.3418 25.9546 46.9583 25.9546C46.5748 25.9546 46.1951 26.0302 45.8408 26.1769C45.4864 26.3237 45.1645 26.5388 44.8933 26.81L32.375 39.3342L25.69 32.6433C25.4188 32.3722 25.0969 32.157 24.7426 32.0103C24.3883 31.8635 24.0085 31.788 23.625 31.788C23.2415 31.788 22.8617 31.8635 22.5074 32.0103C22.1531 32.157 21.8312 32.3722 21.56 32.6433C21.2888 32.9145 21.0737 33.2364 20.9269 33.5908C20.7802 33.9451 20.7046 34.3248 20.7046 34.7083C20.7046 35.0918 20.7802 35.4716 20.9269 35.8259C21.0737 36.1802 21.2888 36.5022 21.56 36.7733L30.31 45.5233C30.5809 45.795 30.9028 46.0105 31.2571 46.1575C31.6115 46.3045 31.9914 46.3802 32.375 46.3802C32.7586 46.3802 33.1385 46.3045 33.4929 46.1575C33.8472 46.0105 34.1691 45.795 34.44 45.5233L49.0233 30.94ZM35.2917 7C27.5562 7 20.1375 10.0729 14.6677 15.5427C9.19791 21.0125 6.125 28.4312 6.125 36.1667C6.125 43.9021 9.19791 51.3208 14.6677 56.7906C20.1375 62.2604 27.5562 65.3333 35.2917 65.3333C43.0271 65.3333 50.4458 62.2604 55.9156 56.7906C61.3854 51.3208 64.4583 43.9021 64.4583 36.1667C64.4583 28.4312 61.3854 21.0125 55.9156 15.5427C50.4458 10.0729 43.0271 7 35.2917 7ZM11.9583 36.1667C11.9583 29.9783 14.4167 24.0434 18.7925 19.6675C23.1684 15.2917 29.1033 12.8333 35.2917 12.8333C41.4801 12.8333 47.415 15.2917 51.7908 19.6675C56.1667 24.0434 58.625 29.9783 58.625 36.1667C58.625 42.3551 56.1667 48.29 51.7908 52.6658C47.415 57.0417 41.4801 59.5 35.2917 59.5C29.1033 59.5 23.1684 57.0417 18.7925 52.6658C14.4167 48.29 11.9583 42.3551 11.9583 36.1667Z" fill="white"/>
</svg>
