<svg width="229" height="50" viewBox="0 0 229 50" fill="none" xmlns="http://www.w3.org/2000/svg">
<path d="M19 41L42.7306 41" stroke="black" stroke-width="0.772325"/>
<path d="M185 41L208.731 41" stroke="black" stroke-width="0.772325"/>
<path d="M3.12914 20C2.75581 20 2.44914 19.8867 2.20914 19.66C1.98247 19.42 1.86914 19.1267 1.86914 18.78V7.22C1.86914 6.87333 1.98247 6.58667 2.20914 6.36C2.44914 6.12 2.74247 6 3.08914 6H9.58914C9.93581 6 10.2225 6.11333 10.4491 6.34C10.6891 6.55333 10.8091 6.83333 10.8091 7.18C10.8091 7.47333 10.6891 7.73333 10.4491 7.96C10.2225 8.18667 9.93581 8.3 9.58914 8.3H4.18914L4.36914 8.06V12.08L4.22914 11.82H8.68914C9.03581 11.82 9.32247 11.9333 9.54914 12.16C9.78914 12.3733 9.90914 12.6533 9.90914 13C9.90914 13.2933 9.78914 13.5533 9.54914 13.78C9.32247 14.0067 9.03581 14.12 8.68914 14.12H4.18914L4.36914 13.94V18.78C4.36914 19.1267 4.24247 19.42 3.98914 19.66C3.74914 19.8867 3.46247 20 3.12914 20ZM14.3196 6H21.0196C21.3663 6 21.6529 6.11333 21.8796 6.34C22.1196 6.55333 22.2396 6.83333 22.2396 7.18C22.2396 7.51333 22.1196 7.78667 21.8796 8C21.6529 8.2 21.3663 8.3 21.0196 8.3H15.4196L15.5996 7.96V11.86L15.4396 11.7H20.1196C20.4663 11.7 20.7529 11.8133 20.9796 12.04C21.2196 12.2533 21.3396 12.5333 21.3396 12.88C21.3396 13.2133 21.2196 13.4867 20.9796 13.7C20.7529 13.9 20.4663 14 20.1196 14H15.4996L15.5996 13.84V17.88L15.4396 17.7H21.0196C21.3663 17.7 21.6529 17.82 21.8796 18.06C22.1196 18.2867 22.2396 18.5533 22.2396 18.86C22.2396 19.1933 22.1196 19.4667 21.8796 19.68C21.6529 19.8933 21.3663 20 21.0196 20H14.3196C13.9729 20 13.6796 19.8867 13.4396 19.66C13.2129 19.42 13.0996 19.1267 13.0996 18.78V7.22C13.0996 6.87333 13.2129 6.58667 13.4396 6.36C13.6796 6.12 13.9729 6 14.3196 6ZM25.8049 5.98C25.9916 5.98 26.1849 6.03333 26.3849 6.14C26.5983 6.23333 26.7583 6.36 26.8649 6.52L31.7249 14L30.7249 13.96L35.7049 6.52C35.9583 6.16 36.2849 5.98 36.6849 5.98C37.0049 5.98 37.2916 6.09333 37.5449 6.32C37.7983 6.54667 37.9249 6.84 37.9249 7.2V18.78C37.9249 19.1267 37.8116 19.42 37.5849 19.66C37.3583 19.8867 37.0583 20 36.6849 20C36.3116 20 36.0049 19.8867 35.7649 19.66C35.5383 19.42 35.4249 19.1267 35.4249 18.78V9.36L36.2049 9.54L32.1249 15.76C32.0049 15.9067 31.8516 16.0333 31.6649 16.14C31.4916 16.2467 31.3116 16.2933 31.1249 16.28C30.9516 16.2933 30.7716 16.2467 30.5849 16.14C30.4116 16.0333 30.2649 15.9067 30.1449 15.76L26.3249 9.72L26.8449 8.66V18.78C26.8449 19.1267 26.7383 19.42 26.5249 19.66C26.3116 19.8867 26.0316 20 25.6849 20C25.3516 20 25.0783 19.8867 24.8649 19.66C24.6516 19.42 24.5449 19.1267 24.5449 18.78V7.2C24.5449 6.86667 24.6649 6.58 24.9049 6.34C25.1583 6.1 25.4583 5.98 25.8049 5.98ZM43.4316 18.78C43.4316 19.1267 43.305 19.42 43.0516 19.66C42.7983 19.8867 42.505 20 42.1716 20C41.7983 20 41.4983 19.8867 41.2716 19.66C41.045 19.42 40.9316 19.1267 40.9316 18.78V7.22C40.9316 6.87333 41.0516 6.58667 41.2916 6.36C41.5316 6.12 41.8383 6 42.2116 6C42.5316 6 42.8116 6.12 43.0516 6.36C43.305 6.58667 43.4316 6.87333 43.4316 7.22V18.78ZM54.1595 17.66C54.5061 17.66 54.7928 17.7733 55.0195 18C55.2595 18.2133 55.3795 18.4933 55.3795 18.84C55.3795 19.1733 55.2595 19.4533 55.0195 19.68C54.7928 19.8933 54.5061 20 54.1595 20H47.6595C47.3128 20 47.0195 19.8867 46.7795 19.66C46.5528 19.42 46.4395 19.1267 46.4395 18.78V7.22C46.4395 6.87333 46.5595 6.58667 46.7995 6.36C47.0395 6.12 47.3461 6 47.7195 6C48.0395 6 48.3195 6.12 48.5595 6.36C48.8128 6.58667 48.9395 6.87333 48.9395 7.22V18L48.4995 17.66H54.1595ZM65.3985 5.94C65.7052 5.94 65.9785 6.06 66.2185 6.3C66.4718 6.52667 66.5985 6.82 66.5985 7.18C66.5985 7.3 66.5785 7.42667 66.5385 7.56C66.5118 7.68 66.4585 7.8 66.3785 7.92L61.8385 14.42L62.1985 13.04V18.78C62.1985 19.1267 62.0785 19.42 61.8385 19.66C61.6118 19.8867 61.3452 20 61.0385 20C60.7052 20 60.4185 19.8867 60.1785 19.66C59.9518 19.42 59.8385 19.1267 59.8385 18.78V13.2L59.9985 13.84L55.6785 8.1C55.5452 7.92667 55.4518 7.76 55.3985 7.6C55.3452 7.44 55.3185 7.29333 55.3185 7.16C55.3185 6.8 55.4585 6.50667 55.7385 6.28C56.0185 6.05333 56.3052 5.94 56.5985 5.94C56.9718 5.94 57.2985 6.12667 57.5785 6.5L61.4185 11.8L60.8585 11.72L64.3985 6.54C64.6785 6.14 65.0118 5.94 65.3985 5.94ZM83.798 6.68C84.1447 6.85333 84.3447 7.12667 84.398 7.5C84.4647 7.87333 84.3714 8.21333 84.118 8.52C83.9447 8.76 83.718 8.89333 83.438 8.92C83.1714 8.94667 82.898 8.89333 82.618 8.76C82.298 8.61333 81.958 8.5 81.598 8.42C81.2514 8.34 80.8847 8.3 80.498 8.3C79.778 8.3 79.1314 8.41333 78.558 8.64C77.998 8.86667 77.518 9.19333 77.118 9.62C76.718 10.0333 76.4114 10.5267 76.198 11.1C75.998 11.6733 75.898 12.3067 75.898 13C75.898 13.8133 76.0114 14.52 76.238 15.12C76.478 15.72 76.8047 16.22 77.218 16.62C77.6314 17.02 78.118 17.32 78.678 17.52C79.238 17.7067 79.8447 17.8 80.498 17.8C80.858 17.8 81.218 17.7667 81.578 17.7C81.938 17.6333 82.2847 17.5133 82.618 17.34C82.898 17.2067 83.1714 17.16 83.438 17.2C83.718 17.24 83.9514 17.38 84.138 17.62C84.4047 17.9533 84.498 18.3 84.418 18.66C84.3514 19.0067 84.1514 19.26 83.818 19.42C83.4714 19.5933 83.1114 19.74 82.738 19.86C82.378 19.9667 82.0114 20.0467 81.638 20.1C81.2647 20.1667 80.8847 20.2 80.498 20.2C79.538 20.2 78.6247 20.0467 77.758 19.74C76.9047 19.4333 76.138 18.98 75.458 18.38C74.7914 17.78 74.2647 17.0333 73.878 16.14C73.4914 15.2333 73.298 14.1867 73.298 13C73.298 11.9733 73.4714 11.0267 73.818 10.16C74.178 9.29333 74.678 8.54667 75.318 7.92C75.9714 7.28 76.738 6.78667 77.618 6.44C78.498 6.08 79.458 5.9 80.498 5.9C81.0847 5.9 81.658 5.96667 82.218 6.1C82.778 6.23333 83.3047 6.42667 83.798 6.68ZM87.8171 6C88.1371 6 88.4171 6.12 88.6571 6.36C88.9104 6.58667 89.0371 6.87333 89.0371 7.22V18.78C89.0371 19.1267 88.9104 19.42 88.6571 19.66C88.4038 19.8867 88.1104 20 87.7771 20C87.4038 20 87.1038 19.8867 86.8771 19.66C86.6504 19.42 86.5371 19.1267 86.5371 18.78V7.22C86.5371 6.87333 86.6571 6.58667 86.8971 6.36C87.1371 6.12 87.4438 6 87.8171 6ZM96.6771 6C97.0504 6 97.3504 6.12 97.5771 6.36C97.8038 6.58667 97.9171 6.87333 97.9171 7.22V18.78C97.9171 19.1267 97.7971 19.42 97.5571 19.66C97.3304 19.8867 97.0238 20 96.6371 20C96.3171 20 96.0304 19.8867 95.7771 19.66C95.5371 19.42 95.4171 19.1267 95.4171 18.78V7.22C95.4171 6.87333 95.5438 6.58667 95.7971 6.36C96.0504 6.12 96.3438 6 96.6771 6ZM87.7571 11.82H96.6771V14.12H87.7571V11.82ZM103.412 18.78C103.412 19.1267 103.285 19.42 103.032 19.66C102.779 19.8867 102.485 20 102.152 20C101.779 20 101.479 19.8867 101.252 19.66C101.025 19.42 100.912 19.1267 100.912 18.78V7.22C100.912 6.87333 101.032 6.58667 101.272 6.36C101.512 6.12 101.819 6 102.192 6C102.512 6 102.792 6.12 103.032 6.36C103.285 6.58667 103.412 6.87333 103.412 7.22V18.78ZM114.14 17.66C114.487 17.66 114.773 17.7733 115 18C115.24 18.2133 115.36 18.4933 115.36 18.84C115.36 19.1733 115.24 19.4533 115 19.68C114.773 19.8933 114.487 20 114.14 20H107.64C107.293 20 107 19.8867 106.76 19.66C106.533 19.42 106.42 19.1267 106.42 18.78V7.22C106.42 6.87333 106.54 6.58667 106.78 6.36C107.02 6.12 107.327 6 107.7 6C108.02 6 108.3 6.12 108.54 6.36C108.793 6.58667 108.92 6.87333 108.92 7.22V18L108.48 17.66H114.14ZM125.37 17.66C125.717 17.66 126.004 17.7733 126.23 18C126.47 18.2133 126.59 18.4933 126.59 18.84C126.59 19.1733 126.47 19.4533 126.23 19.68C126.004 19.8933 125.717 20 125.37 20H118.87C118.524 20 118.23 19.8867 117.99 19.66C117.764 19.42 117.65 19.1267 117.65 18.78V7.22C117.65 6.87333 117.77 6.58667 118.01 6.36C118.25 6.12 118.557 6 118.93 6C119.25 6 119.53 6.12 119.77 6.36C120.024 6.58667 120.15 6.87333 120.15 7.22V18L119.71 17.66H125.37ZM138.566 20.2C137.62 20.2 136.766 19.9933 136.006 19.58C135.26 19.1667 134.666 18.6267 134.226 17.96C133.8 17.2933 133.586 16.58 133.586 15.82C133.586 15.1533 133.7 14.5467 133.926 14C134.166 13.44 134.52 12.9467 134.986 12.52C135.466 12.0933 136.073 11.7333 136.806 11.44L138.366 13.06C137.433 13.26 136.806 13.5667 136.486 13.98C136.18 14.38 136.026 14.8733 136.026 15.46C136.026 15.86 136.126 16.2533 136.326 16.64C136.526 17.0133 136.853 17.3267 137.306 17.58C137.76 17.82 138.366 17.94 139.126 17.94C139.753 17.94 140.313 17.8 140.806 17.52C141.313 17.2267 141.746 16.8467 142.106 16.38C142.48 15.9 142.78 15.3733 143.006 14.8C143.246 14.2133 143.406 13.62 143.486 13.02C143.513 12.8067 143.593 12.64 143.726 12.52C143.873 12.4 144.113 12.34 144.446 12.34C144.793 12.34 145.066 12.48 145.266 12.76C145.466 13.04 145.54 13.3667 145.486 13.74C145.366 14.54 145.133 15.3267 144.786 16.1C144.453 16.86 144 17.5533 143.426 18.18C142.866 18.7933 142.18 19.2867 141.366 19.66C140.566 20.02 139.633 20.2 138.566 20.2ZM145.686 20.04C145.526 20.04 145.386 20.02 145.266 19.98C145.16 19.94 145.073 19.8933 145.006 19.84C144.046 19.0133 143.166 18.2533 142.366 17.56C141.58 16.8533 140.853 16.18 140.186 15.54C139.52 14.9 138.893 14.2467 138.306 13.58C137.84 13.0467 137.413 12.5667 137.026 12.14C136.64 11.7133 136.326 11.3 136.086 10.9C135.86 10.4867 135.746 10.0333 135.746 9.54C135.746 8.88667 135.92 8.28 136.266 7.72C136.626 7.14667 137.133 6.68667 137.786 6.34C138.44 5.98 139.213 5.8 140.106 5.8C141.026 5.8 141.853 5.95333 142.586 6.26C143.333 6.56667 143.833 6.97333 144.086 7.48C144.1 7.49333 144.133 7.58 144.186 7.74C144.24 7.88667 144.266 8.06 144.266 8.26C144.266 8.51333 144.173 8.73333 143.986 8.92C143.8 9.10667 143.546 9.2 143.226 9.2C143.013 9.2 142.846 9.16 142.726 9.08C142.606 9 142.513 8.92 142.446 8.84C142.153 8.45333 141.813 8.18667 141.426 8.04C141.053 7.88 140.613 7.8 140.106 7.8C139.506 7.8 139.046 7.96 138.726 8.28C138.42 8.6 138.266 8.98 138.266 9.42C138.266 9.83333 138.413 10.2467 138.706 10.66C139 11.06 139.333 11.44 139.706 11.8C140.093 12.16 140.413 12.48 140.666 12.76C141.08 13.2 141.54 13.6733 142.046 14.18C142.566 14.6733 143.086 15.16 143.606 15.64C144.126 16.1067 144.606 16.5467 145.046 16.96C145.5 17.36 145.866 17.6933 146.146 17.96C146.32 18.12 146.446 18.28 146.526 18.44C146.62 18.6 146.666 18.7933 146.666 19.02C146.666 19.1933 146.586 19.4067 146.426 19.66C146.28 19.9133 146.033 20.04 145.686 20.04ZM160.531 6C161.811 6 162.765 6.3 163.391 6.9C164.018 7.5 164.331 8.38667 164.331 9.56C164.331 10.1867 164.178 10.74 163.871 11.22C163.565 11.6867 163.111 12.0533 162.511 12.32C161.911 12.5733 161.171 12.7 160.291 12.7L160.371 11.8C160.785 11.8 161.258 11.86 161.791 11.98C162.325 12.0867 162.838 12.2867 163.331 12.58C163.838 12.86 164.251 13.26 164.571 13.78C164.905 14.2867 165.071 14.94 165.071 15.74C165.071 16.62 164.925 17.34 164.631 17.9C164.351 18.46 163.978 18.8933 163.511 19.2C163.045 19.5067 162.545 19.72 162.011 19.84C161.478 19.9467 160.965 20 160.471 20H155.491C155.145 20 154.851 19.8867 154.611 19.66C154.385 19.42 154.271 19.1267 154.271 18.78V7.22C154.271 6.87333 154.385 6.58667 154.611 6.36C154.851 6.12 155.145 6 155.491 6H160.531ZM160.171 8.36H156.611L156.871 8.04V11.66L156.631 11.48H160.231C160.618 11.48 160.965 11.3533 161.271 11.1C161.578 10.8467 161.731 10.48 161.731 10C161.731 9.42667 161.585 9.01333 161.291 8.76C161.011 8.49333 160.638 8.36 160.171 8.36ZM160.331 13.84H156.691L156.871 13.68V17.9L156.671 17.7H160.471C161.085 17.7 161.571 17.54 161.931 17.22C162.291 16.8867 162.471 16.3933 162.471 15.74C162.471 15.14 162.351 14.7067 162.111 14.44C161.871 14.1733 161.585 14.0067 161.251 13.94C160.918 13.8733 160.611 13.84 160.331 13.84ZM168.597 6H175.297C175.644 6 175.93 6.11333 176.157 6.34C176.397 6.55333 176.517 6.83333 176.517 7.18C176.517 7.51333 176.397 7.78667 176.157 8C175.93 8.2 175.644 8.3 175.297 8.3H169.697L169.877 7.96V11.86L169.717 11.7H174.397C174.744 11.7 175.03 11.8133 175.257 12.04C175.497 12.2533 175.617 12.5333 175.617 12.88C175.617 13.2133 175.497 13.4867 175.257 13.7C175.03 13.9 174.744 14 174.397 14H169.777L169.877 13.84V17.88L169.717 17.7H175.297C175.644 17.7 175.93 17.82 176.157 18.06C176.397 18.2867 176.517 18.5533 176.517 18.86C176.517 19.1933 176.397 19.4667 176.157 19.68C175.93 19.8933 175.644 20 175.297 20H168.597C168.25 20 167.957 19.8867 167.717 19.66C167.49 19.42 167.377 19.1267 167.377 18.78V7.22C167.377 6.87333 167.49 6.58667 167.717 6.36C167.957 6.12 168.25 6 168.597 6ZM183.962 9.14L179.642 19.3C179.549 19.5533 179.402 19.7533 179.202 19.9C179.016 20.0333 178.809 20.1 178.582 20.1C178.222 20.1 177.956 20 177.782 19.8C177.609 19.6 177.522 19.3533 177.522 19.06C177.522 18.94 177.542 18.8133 177.582 18.68L182.562 6.72C182.669 6.45333 182.829 6.24667 183.042 6.1C183.269 5.95333 183.509 5.89333 183.762 5.92C184.002 5.92 184.222 5.99333 184.422 6.14C184.636 6.27333 184.789 6.46667 184.882 6.72L189.802 18.44C189.869 18.6133 189.902 18.7733 189.902 18.92C189.902 19.28 189.782 19.5667 189.542 19.78C189.316 19.9933 189.062 20.1 188.782 20.1C188.542 20.1 188.322 20.0267 188.122 19.88C187.936 19.7333 187.789 19.5333 187.682 19.28L183.382 9.26L183.962 9.14ZM180.262 16.86L181.362 14.56H186.762L187.142 16.86H180.262ZM201.34 5.98C201.687 5.98 201.967 6.1 202.18 6.34C202.394 6.56667 202.5 6.85333 202.5 7.2V14.44C202.5 15.5467 202.26 16.5267 201.78 17.38C201.314 18.2333 200.667 18.9 199.84 19.38C199.014 19.86 198.054 20.1 196.96 20.1C195.867 20.1 194.9 19.86 194.06 19.38C193.234 18.9 192.58 18.2333 192.1 17.38C191.634 16.5267 191.4 15.5467 191.4 14.44V7.2C191.4 6.85333 191.52 6.56667 191.76 6.34C192 6.1 192.307 5.98 192.68 5.98C192.987 5.98 193.26 6.1 193.5 6.34C193.754 6.56667 193.88 6.85333 193.88 7.2V14.44C193.88 15.1067 194.02 15.6867 194.3 16.18C194.594 16.66 194.974 17.0333 195.44 17.3C195.92 17.5667 196.427 17.7 196.96 17.7C197.534 17.7 198.067 17.5667 198.56 17.3C199.054 17.0333 199.454 16.66 199.76 16.18C200.067 15.6867 200.22 15.1067 200.22 14.44V7.2C200.22 6.85333 200.32 6.56667 200.52 6.34C200.72 6.1 200.994 5.98 201.34 5.98ZM210.242 20C209.869 20 209.562 19.8867 209.322 19.66C209.082 19.42 208.962 19.1267 208.962 18.78V7.18H211.562V18.78C211.562 19.1267 211.435 19.42 211.182 19.66C210.942 19.8867 210.629 20 210.242 20ZM205.822 8.3C205.475 8.3 205.182 8.19333 204.942 7.98C204.715 7.76667 204.602 7.48667 204.602 7.14C204.602 6.79333 204.715 6.52 204.942 6.32C205.182 6.10667 205.475 6 205.822 6H214.702C215.049 6 215.335 6.10667 215.562 6.32C215.802 6.53333 215.922 6.81333 215.922 7.16C215.922 7.50667 215.802 7.78667 215.562 8C215.335 8.2 215.049 8.3 214.702 8.3H205.822ZM227.137 5.94C227.443 5.94 227.717 6.06 227.957 6.3C228.21 6.52667 228.337 6.82 228.337 7.18C228.337 7.3 228.317 7.42667 228.277 7.56C228.25 7.68 228.197 7.8 228.117 7.92L223.577 14.42L223.937 13.04V18.78C223.937 19.1267 223.817 19.42 223.577 19.66C223.35 19.8867 223.083 20 222.777 20C222.443 20 222.157 19.8867 221.917 19.66C221.69 19.42 221.577 19.1267 221.577 18.78V13.2L221.737 13.84L217.417 8.1C217.283 7.92667 217.19 7.76 217.137 7.6C217.083 7.44 217.057 7.29333 217.057 7.16C217.057 6.8 217.197 6.50667 217.477 6.28C217.757 6.05333 218.043 5.94 218.337 5.94C218.71 5.94 219.037 6.12667 219.317 6.5L223.157 11.8L222.597 11.72L226.137 6.54C226.417 6.14 226.75 5.94 227.137 5.94ZM51.6618 46.06C50.8918 46.06 50.1768 45.93 49.5168 45.67C48.8568 45.4 48.2818 45.025 47.7918 44.545C47.3018 44.065 46.9218 43.505 46.6518 42.865C46.3818 42.215 46.2468 41.51 46.2468 40.75C46.2468 39.99 46.3818 39.29 46.6518 38.65C46.9218 38 47.3018 37.435 47.7918 36.955C48.2818 36.475 48.8568 36.105 49.5168 35.845C50.1768 35.575 50.8918 35.44 51.6618 35.44C52.3718 35.44 53.0418 35.555 53.6718 35.785C54.3018 36.015 54.8468 36.365 55.3068 36.835L54.9918 37.165C54.5218 36.715 54.0068 36.395 53.4468 36.205C52.8968 36.005 52.3068 35.905 51.6768 35.905C50.9768 35.905 50.3268 36.03 49.7268 36.28C49.1268 36.52 48.6018 36.86 48.1518 37.3C47.7118 37.74 47.3668 38.255 47.1168 38.845C46.8768 39.425 46.7568 40.06 46.7568 40.75C46.7568 41.44 46.8768 42.08 47.1168 42.67C47.3668 43.25 47.7118 43.76 48.1518 44.2C48.6018 44.64 49.1268 44.985 49.7268 45.235C50.3268 45.475 50.9768 45.595 51.6768 45.595C52.3068 45.595 52.8968 45.5 53.4468 45.31C54.0068 45.11 54.5218 44.78 54.9918 44.32L55.3068 44.65C54.8468 45.12 54.3018 45.475 53.6718 45.715C53.0418 45.945 52.3718 46.06 51.6618 46.06ZM55.9869 46L60.8469 35.5H61.3419L66.2019 46H65.6469L60.9819 35.845H61.2069L56.5419 46H55.9869ZM57.6669 42.925L57.8619 42.49H64.2819L64.4769 42.925H57.6669ZM67.3067 46.06C67.1967 46.06 67.0867 46.05 66.9767 46.03C66.8767 46.02 66.7617 46 66.6317 45.97L66.7067 45.505C66.8867 45.545 67.0567 45.565 67.2167 45.565C67.6767 45.565 68.0517 45.385 68.3417 45.025C68.6417 44.665 68.8717 44.085 69.0317 43.285C69.1917 42.485 69.2967 41.425 69.3467 40.105L69.5117 35.5H76.1867V46H75.6917V35.785L75.8717 35.965H69.8117L69.9767 35.785L69.8117 40.12C69.7817 41.17 69.7117 42.075 69.6017 42.835C69.4917 43.585 69.3317 44.195 69.1217 44.665C68.9217 45.135 68.6717 45.485 68.3717 45.715C68.0717 45.945 67.7167 46.06 67.3067 46.06ZM84.5915 46.06C83.8215 46.06 83.1065 45.93 82.4465 45.67C81.7865 45.4 81.2115 45.025 80.7215 44.545C80.2315 44.065 79.8515 43.505 79.5815 42.865C79.3115 42.215 79.1765 41.51 79.1765 40.75C79.1765 39.99 79.3115 39.29 79.5815 38.65C79.8515 38 80.2315 37.435 80.7215 36.955C81.2115 36.475 81.7865 36.105 82.4465 35.845C83.1065 35.575 83.8215 35.44 84.5915 35.44C85.3715 35.44 86.0915 35.575 86.7515 35.845C87.4115 36.105 87.9815 36.475 88.4615 36.955C88.9515 37.435 89.3315 38 89.6015 38.65C89.8815 39.29 90.0215 39.99 90.0215 40.75C90.0215 41.51 89.8815 42.215 89.6015 42.865C89.3315 43.505 88.9515 44.065 88.4615 44.545C87.9815 45.025 87.4115 45.4 86.7515 45.67C86.0915 45.93 85.3715 46.06 84.5915 46.06ZM84.5915 45.595C85.2915 45.595 85.9415 45.475 86.5415 45.235C87.1415 44.995 87.6615 44.655 88.1015 44.215C88.5515 43.775 88.8965 43.265 89.1365 42.685C89.3865 42.095 89.5115 41.45 89.5115 40.75C89.5115 40.05 89.3865 39.41 89.1365 38.83C88.8965 38.24 88.5515 37.725 88.1015 37.285C87.6615 36.845 87.1415 36.505 86.5415 36.265C85.9415 36.025 85.2915 35.905 84.5915 35.905C83.9015 35.905 83.2565 36.025 82.6565 36.265C82.0565 36.505 81.5315 36.845 81.0815 37.285C80.6415 37.725 80.2965 38.24 80.0465 38.83C79.8065 39.41 79.6865 40.05 79.6865 40.75C79.6865 41.45 79.8065 42.095 80.0465 42.685C80.2965 43.265 80.6415 43.775 81.0815 44.215C81.5315 44.655 82.0565 44.995 82.6565 45.235C83.2565 45.475 83.9015 45.595 84.5915 45.595ZM100.874 35.5H101.384V46H100.874V35.5ZM93.5086 46H92.9986V35.5H93.5086V46ZM100.964 40.9H93.4186V40.435H100.964V40.9ZM116.594 46L112.199 40.675L112.634 40.45L117.194 46H116.594ZM109.229 46V35.5H109.739V46H109.229ZM109.559 40.9V40.435H112.679V40.9H109.559ZM112.649 40.795L112.199 40.66L116.324 35.5H116.909L112.649 40.795ZM119.19 46V35.5H122.835C123.705 35.5 124.45 35.64 125.07 35.92C125.7 36.2 126.18 36.6 126.51 37.12C126.84 37.63 127.005 38.25 127.005 38.98C127.005 39.71 126.84 40.335 126.51 40.855C126.18 41.375 125.7 41.775 125.07 42.055C124.45 42.335 123.705 42.475 122.835 42.475H119.475L119.7 42.235V46H119.19ZM119.7 42.235L119.475 42.01H122.865C124.045 42.01 124.945 41.745 125.565 41.215C126.195 40.685 126.51 39.94 126.51 38.98C126.51 38.02 126.195 37.28 125.565 36.76C124.945 36.23 124.045 35.965 122.865 35.965H119.475L119.7 35.725V42.235ZM127.398 46L132.258 35.5H132.753L137.613 46H137.058L132.393 35.845H132.618L127.953 46H127.398ZM129.078 42.925L129.273 42.49H135.693L135.888 42.925H129.078ZM144.181 46.06C143.411 46.06 142.696 45.93 142.036 45.67C141.376 45.4 140.801 45.025 140.311 44.545C139.821 44.065 139.441 43.505 139.171 42.865C138.901 42.215 138.766 41.51 138.766 40.75C138.766 39.99 138.901 39.29 139.171 38.65C139.441 38 139.821 37.435 140.311 36.955C140.801 36.475 141.376 36.105 142.036 35.845C142.696 35.575 143.411 35.44 144.181 35.44C144.891 35.44 145.561 35.555 146.191 35.785C146.821 36.015 147.366 36.365 147.826 36.835L147.511 37.165C147.041 36.715 146.526 36.395 145.966 36.205C145.416 36.005 144.826 35.905 144.196 35.905C143.496 35.905 142.846 36.03 142.246 36.28C141.646 36.52 141.121 36.86 140.671 37.3C140.231 37.74 139.886 38.255 139.636 38.845C139.396 39.425 139.276 40.06 139.276 40.75C139.276 41.44 139.396 42.08 139.636 42.67C139.886 43.25 140.231 43.76 140.671 44.2C141.121 44.64 141.646 44.985 142.246 45.235C142.846 45.475 143.496 45.595 144.196 45.595C144.826 45.595 145.416 45.5 145.966 45.31C146.526 45.11 147.041 44.78 147.511 44.32L147.826 44.65C147.366 45.12 146.821 45.475 146.191 45.715C145.561 45.945 144.891 46.06 144.181 46.06ZM154.655 46.06C153.885 46.06 153.17 45.93 152.51 45.67C151.85 45.4 151.275 45.025 150.785 44.545C150.295 44.065 149.915 43.505 149.645 42.865C149.375 42.215 149.24 41.51 149.24 40.75C149.24 39.99 149.375 39.29 149.645 38.65C149.915 38 150.295 37.435 150.785 36.955C151.275 36.475 151.85 36.105 152.51 35.845C153.17 35.575 153.885 35.44 154.655 35.44C155.435 35.44 156.155 35.575 156.815 35.845C157.475 36.105 158.045 36.475 158.525 36.955C159.015 37.435 159.395 38 159.665 38.65C159.945 39.29 160.085 39.99 160.085 40.75C160.085 41.51 159.945 42.215 159.665 42.865C159.395 43.505 159.015 44.065 158.525 44.545C158.045 45.025 157.475 45.4 156.815 45.67C156.155 45.93 155.435 46.06 154.655 46.06ZM154.655 45.595C155.355 45.595 156.005 45.475 156.605 45.235C157.205 44.995 157.725 44.655 158.165 44.215C158.615 43.775 158.96 43.265 159.2 42.685C159.45 42.095 159.575 41.45 159.575 40.75C159.575 40.05 159.45 39.41 159.2 38.83C158.96 38.24 158.615 37.725 158.165 37.285C157.725 36.845 157.205 36.505 156.605 36.265C156.005 36.025 155.355 35.905 154.655 35.905C153.965 35.905 153.32 36.025 152.72 36.265C152.12 36.505 151.595 36.845 151.145 37.285C150.705 37.725 150.36 38.24 150.11 38.83C149.87 39.41 149.75 40.05 149.75 40.75C149.75 41.45 149.87 42.095 150.11 42.685C150.36 43.265 150.705 43.775 151.145 44.215C151.595 44.655 152.12 44.995 152.72 45.235C153.32 45.475 153.965 45.595 154.655 45.595ZM164.911 46V35.785L165.091 35.965H161.071V35.5H169.261V35.965H165.241L165.421 35.785V46H164.911ZM175.462 39.415C176.692 39.415 177.627 39.69 178.267 40.24C178.907 40.78 179.227 41.585 179.227 42.655C179.227 43.755 178.892 44.59 178.222 45.16C177.552 45.72 176.572 46 175.282 46H171.382V35.5H171.892V39.415H175.462ZM175.327 45.565C176.447 45.565 177.292 45.325 177.862 44.845C178.432 44.355 178.717 43.63 178.717 42.67C178.717 41.72 178.437 41.015 177.877 40.555C177.317 40.085 176.467 39.85 175.327 39.85H171.892V45.565H175.327ZM181.252 46V35.5H181.762V46H181.252Z" fill="black"/>
</svg>
