<svg width="70" height="70" viewBox="0 0 70 70" fill="none" xmlns="http://www.w3.org/2000/svg">
<path d="M35 43.75C36.1603 43.75 37.2731 43.2891 38.0936 42.4686C38.9141 41.6482 39.375 40.5354 39.375 39.375C39.375 38.2147 38.9141 37.1019 38.0936 36.2814C37.2731 35.461 36.1603 35 35 35C33.8397 35 32.7269 35.461 31.9064 36.2814C31.086 37.1019 30.625 38.2147 30.625 39.375C30.625 40.5354 31.086 41.6482 31.9064 42.4686C32.7269 43.2891 33.8397 43.75 35 43.75ZM45.4956 25.0163L38.3206 15.9775C38.8662 15.3426 39.2181 14.5644 39.3346 13.7354C39.4511 12.9064 39.3274 12.0614 38.978 11.3007C38.6287 10.5399 38.0684 9.89534 37.3636 9.44349C36.6589 8.99164 35.8393 8.75146 35.0022 8.75146C34.1651 8.75146 33.3455 8.99164 32.6408 9.44349C31.9361 9.89534 31.3758 10.5399 31.0264 11.3007C30.677 12.0614 30.5533 12.9064 30.6698 13.7354C30.7863 14.5644 31.1382 15.3426 31.6838 15.9775L24.5 25.0119C24.1936 25.3989 23.7654 25.6709 23.2848 25.7837C22.8043 25.8965 22.2997 25.8434 21.8531 25.6332L10.8719 20.4575C11.0329 19.5568 10.9075 18.6283 10.5133 17.8026C10.1191 16.9769 9.47588 16.2955 8.67422 15.8545C7.87257 15.4134 6.95279 15.2347 6.04431 15.3437C5.13582 15.4526 4.28436 15.8436 3.60971 16.4618C2.93506 17.0799 2.47119 17.8939 2.28336 18.7894C2.09553 19.685 2.1932 20.6168 2.56262 21.4539C2.93204 22.291 3.55462 22.9912 4.34276 23.456C5.13091 23.9208 6.04494 24.1268 6.95627 24.045L12.6438 52.4825C12.8922 53.7203 13.5612 54.8339 14.5373 55.6346C15.5134 56.4352 16.7364 56.8735 17.9988 56.875H51.9925C53.2571 56.8753 54.4826 56.4373 55.4606 55.6356C56.4385 54.834 57.1084 53.7182 57.3563 52.4782L63.0438 24.045C63.9551 24.1268 64.8691 23.9208 65.6573 23.456C66.4454 22.9912 67.068 22.291 67.4374 21.4539C67.8068 20.6168 67.9045 19.685 67.7167 18.7894C67.5289 17.8939 67.065 17.0799 66.3903 16.4618C65.7157 15.8436 64.8642 15.4526 63.9557 15.3437C63.0473 15.2347 62.1275 15.4134 61.3258 15.8545C60.5242 16.2955 59.881 16.9769 59.4868 17.8026C59.0925 18.6283 58.9671 19.5568 59.1282 20.4575L48.1381 25.6375C47.6916 25.8478 47.187 25.9008 46.7065 25.7881C46.2259 25.6753 45.7977 25.4033 45.4913 25.0163H45.4956ZM34.9956 18.83L42.07 27.7375C42.9901 28.896 44.2747 29.7096 45.7153 30.0464C47.1559 30.3831 48.668 30.2232 50.0063 29.5925L58.2531 25.7075L53.0688 51.6207C53.0192 51.8685 52.8854 52.0916 52.69 52.2519C52.4946 52.4122 52.2497 52.4999 51.9969 52.5H18.0031C17.7504 52.4999 17.5055 52.4122 17.3101 52.2519C17.1147 52.0916 16.9808 51.8685 16.9313 51.6207L11.7469 25.7075L19.9938 29.5925C21.3321 30.2232 22.8442 30.3831 24.2848 30.0464C25.7254 29.7096 27.0099 28.896 27.93 27.7375L34.9956 18.83Z" fill="white"/>
</svg>
