<svg width="42" height="42" viewBox="0 0 42 42" fill="none" xmlns="http://www.w3.org/2000/svg">
<path fill-rule="evenodd" clip-rule="evenodd" d="M40.9295 20.2904L20.7055 0L0.350929 20.2881C0.241351 20.3937 0.153889 20.52 0.093648 20.6597C0.0334066 20.7994 0.00159099 20.9497 5.81592e-05 21.1018C-0.00147467 21.254 0.027306 21.4049 0.0847202 21.5458C0.142134 21.6867 0.227033 21.8147 0.334462 21.9225C0.441891 22.0302 0.5697 22.1155 0.710431 22.1733C0.851162 22.2311 1.002 22.2603 1.15414 22.2592C1.30628 22.2581 1.45667 22.2267 1.59655 22.1669C1.73643 22.107 1.86299 22.0199 1.96885 21.9106L4.59739 19.2912V40.0056C4.59739 40.3095 4.71811 40.601 4.93299 40.8159C5.14788 41.0307 5.43933 41.1515 5.74322 41.1515H16.0557C16.3596 41.1515 16.6511 41.0307 16.8659 40.8159C17.0808 40.601 17.2016 40.3095 17.2016 40.0056V29.991C17.2016 29.6871 17.3223 29.3957 17.5372 29.1808C17.752 28.9659 18.0435 28.8452 18.3474 28.8452H22.9307C23.2346 28.8452 23.5261 28.9659 23.7409 29.1808C23.9558 29.3957 24.0766 29.6871 24.0766 29.991V40.0056C24.0766 40.3095 24.1973 40.601 24.4122 40.8159C24.627 41.0307 24.9185 41.1515 25.2224 41.1515H35.5349C35.8388 41.1515 36.1302 41.0307 36.3451 40.8159C36.56 40.601 36.6807 40.3095 36.6807 40.0056V19.2741L39.307 21.9095C39.4133 22.016 39.5395 22.1006 39.6785 22.1583C39.8175 22.216 39.9665 22.2459 40.117 22.246C40.2675 22.2462 40.4166 22.2167 40.5557 22.1592C40.6948 22.1018 40.8212 22.0175 40.9278 21.9112C41.0343 21.8049 41.1188 21.6786 41.1766 21.5396C41.2343 21.4007 41.2641 21.2517 41.2643 21.1012C41.2644 20.9507 41.235 20.8016 41.1775 20.6625C41.1201 20.5234 41.0358 20.3969 40.9295 20.2904ZM34.3891 16.9744L20.6998 3.24042L6.88905 17.0065V38.8598H14.9099V29.991C14.9099 29.0794 15.2721 28.205 15.9167 27.5604C16.5614 26.9157 17.4357 26.5535 18.3474 26.5535H22.9307C23.8424 26.5535 24.7167 26.9157 25.3614 27.5604C26.0061 28.205 26.3682 29.0794 26.3682 29.991V38.8598H34.3891V16.9744Z" fill="black"/>
</svg>
