<svg width="28" height="29" viewBox="0 0 28 29" fill="none" xmlns="http://www.w3.org/2000/svg">
<g clip-path="url(#clip0_247_90)">
<path d="M13.6077 3.07649C17.2214 3.07649 17.6494 3.0931 19.0706 3.15957C20.3914 3.2205 21.1046 3.45313 21.5801 3.64699C22.2088 3.90178 22.6632 4.21195 23.1334 4.70491C23.6089 5.20341 23.8995 5.67421 24.1425 6.33334C24.3274 6.83184 24.5493 7.58512 24.6074 8.9643C24.6708 10.4598 24.6867 10.9084 24.6867 14.6915C24.6867 18.4801 24.6708 18.9287 24.6074 20.4187C24.5493 21.8034 24.3274 22.5511 24.1425 23.0496C23.8995 23.7088 23.6036 24.1851 23.1334 24.6781C22.6579 25.1765 22.2088 25.4812 21.5801 25.736C21.1046 25.9298 20.3861 26.1625 19.0706 26.2234C17.6441 26.2899 17.2162 26.3065 13.6077 26.3065C9.99399 26.3065 9.56604 26.2899 8.14485 26.2234C6.82405 26.1625 6.11081 25.9298 5.63532 25.736C5.00661 25.4812 4.55226 25.171 4.08205 24.6781C3.60656 24.1796 3.31598 23.7088 3.07295 23.0496C2.88804 22.5511 2.66614 21.7978 2.60803 20.4187C2.54463 18.9232 2.52878 18.4745 2.52878 14.6915C2.52878 10.9029 2.54463 10.4543 2.60803 8.9643C2.66614 7.57958 2.88804 6.83184 3.07295 6.33334C3.31598 5.67421 3.61184 5.19787 4.08205 4.70491C4.55754 4.20641 5.00661 3.90178 5.63532 3.64699C6.11081 3.45313 6.82933 3.2205 8.14485 3.15957C9.56604 3.0931 9.99399 3.07649 13.6077 3.07649ZM13.6077 0.523071C9.93587 0.523071 9.47623 0.539688 8.03391 0.606154C6.59687 0.672621 5.6089 0.91633 4.75302 1.26528C3.86015 1.63084 3.10465 2.11272 2.35443 2.90478C1.59893 3.6913 1.13929 4.48336 0.790595 5.41389C0.457751 6.31672 0.225289 7.34695 0.16189 8.85352C0.0984913 10.3712 0.0826416 10.853 0.0826416 14.7026C0.0826416 18.5521 0.0984913 19.0339 0.16189 20.5461C0.225289 22.0526 0.457751 23.0884 0.790595 23.9857C1.13929 24.9218 1.59893 25.7138 2.35443 26.5003C3.10465 27.2869 3.86015 27.7743 4.74774 28.1343C5.6089 28.4832 6.59158 28.727 8.02862 28.7934C9.47095 28.8599 9.93059 28.8765 13.6024 28.8765C17.2743 28.8765 17.7339 28.8599 19.1762 28.7934C20.6133 28.727 21.6012 28.4832 22.4571 28.1343C23.3447 27.7743 24.1002 27.2869 24.8504 26.5003C25.6007 25.7138 26.0656 24.9218 26.409 23.9912C26.7418 23.0884 26.9743 22.0582 27.0377 20.5516C27.1011 19.0395 27.1169 18.5576 27.1169 14.7081C27.1169 10.8586 27.1011 10.3767 27.0377 8.8646C26.9743 7.35803 26.7418 6.32226 26.409 5.42496C26.0761 4.48336 25.6165 3.6913 24.861 2.90478C24.1108 2.11826 23.3553 1.63084 22.4677 1.27082C21.6065 0.921869 20.6238 0.678159 19.1868 0.611693C17.7392 0.539688 17.2796 0.523071 13.6077 0.523071Z" fill="white"/>
<path d="M13.6077 7.41895C9.7721 7.41895 6.66028 10.6813 6.66028 14.7025C6.66028 18.7238 9.7721 21.9862 13.6077 21.9862C17.4434 21.9862 20.5552 18.7238 20.5552 14.7025C20.5552 10.6813 17.4434 7.41895 13.6077 7.41895ZM13.6077 19.4272C11.1193 19.4272 9.10113 17.3114 9.10113 14.7025C9.10113 12.0937 11.1193 9.9779 13.6077 9.9779C16.0961 9.9779 18.1143 12.0937 18.1143 14.7025C18.1143 17.3114 16.0961 19.4272 13.6077 19.4272Z" fill="white"/>
<path d="M22.4519 7.13085C22.4519 8.07246 21.7228 8.83129 20.8299 8.83129C19.9318 8.83129 19.2079 8.06692 19.2079 7.13085C19.2079 6.18925 19.937 5.43042 20.8299 5.43042C21.7228 5.43042 22.4519 6.19478 22.4519 7.13085Z" fill="white"/>
</g>
<defs>
<clipPath id="clip0_247_90">
<rect width="27.0501" height="28.359" fill="white" transform="translate(0.0826416 0.523071)"/>
</clipPath>
</defs>
</svg>
