<svg width="70" height="70" viewBox="0 0 70 70" fill="none" xmlns="http://www.w3.org/2000/svg">
<path d="M13.125 61.25C16.3466 61.25 18.9583 58.6383 18.9583 55.4167C18.9583 52.1951 16.3466 49.5834 13.125 49.5834C9.90334 49.5834 7.29167 52.1951 7.29167 55.4167C7.29167 58.6383 9.90334 61.25 13.125 61.25Z" stroke="white" stroke-width="3" stroke-linejoin="round"/>
<path d="M13.125 20.4167C16.3466 20.4167 18.9583 17.8051 18.9583 14.5833C18.9583 11.3617 16.3466 8.75 13.125 8.75C9.90334 8.75 7.29167 11.3617 7.29167 14.5833C7.29167 17.8051 9.90334 20.4167 13.125 20.4167Z" stroke="white" stroke-width="3" stroke-linejoin="round"/>
<path d="M13.125 40.8333C16.3466 40.8333 18.9583 38.2217 18.9583 35C18.9583 31.7782 16.3466 29.1666 13.125 29.1666C9.90334 29.1666 7.29167 31.7782 7.29167 35C7.29167 38.2217 9.90334 40.8333 13.125 40.8333Z" stroke="white" stroke-width="3" stroke-linejoin="round"/>
<path d="M30.625 35H62.7083" stroke="white" stroke-width="3" stroke-linecap="round" stroke-linejoin="round"/>
<path d="M30.625 55.4166H62.7083" stroke="white" stroke-width="3" stroke-linecap="round" stroke-linejoin="round"/>
<path d="M30.625 14.5834H62.7083" stroke="white" stroke-width="3" stroke-linecap="round" stroke-linejoin="round"/>
</svg>
