<svg width="70" height="70" viewBox="0 0 70 70" fill="none" xmlns="http://www.w3.org/2000/svg">
<path d="M41.6267 30.4646L52.5 5.83337M27.1717 31.01L14.5833 5.83337M37.2196 29.3067L25.7687 5.83337M41.8833 5.83337L38.85 13.125M17.5 46.6667C17.5 51.308 19.3437 55.7592 22.6256 59.0411C25.9075 62.323 30.3587 64.1667 35 64.1667C39.6413 64.1667 44.0925 62.323 47.3744 59.0411C50.6563 55.7592 52.5 51.308 52.5 46.6667C52.5 42.0254 50.6563 37.5742 47.3744 34.2923C44.0925 31.0105 39.6413 29.1667 35 29.1667C30.3587 29.1667 25.9075 31.0105 22.6256 34.2923C19.3437 37.5742 17.5 42.0254 17.5 46.6667Z" stroke="white" stroke-width="3" stroke-linecap="round" stroke-linejoin="round"/>
<path d="M30.625 43.75L36.4583 39.375V53.9583" stroke="white" stroke-width="3" stroke-linecap="round" stroke-linejoin="round"/>
</svg>
