<svg width="42" height="42" viewBox="0 0 42 42" fill="none" xmlns="http://www.w3.org/2000/svg">
<path d="M16.159 4.43481C17.3406 3.42908 17.9315 2.92622 18.5475 2.63079C19.253 2.2934 20.0251 2.11829 20.8071 2.11829C21.5891 2.11829 22.3612 2.2934 23.0667 2.63079C23.6848 2.92412 24.2756 3.42699 25.4552 4.43481C25.9266 4.83711 26.1613 5.03616 26.4127 5.20378C26.9884 5.58968 27.6351 5.85746 28.3151 5.9916C28.6105 6.05027 28.9185 6.07541 29.5345 6.1257C31.0828 6.24722 31.8559 6.31008 32.5012 6.53847C33.2383 6.79859 33.9078 7.22038 34.4606 7.77292C35.0135 8.32545 35.4357 8.99472 35.6963 9.73166C35.9247 10.3791 35.9854 11.1523 36.1091 12.6986C36.1572 13.3146 36.1824 13.6226 36.2411 13.9201C36.3751 14.599 36.6433 15.2464 37.0288 15.8205C37.1964 16.072 37.3976 16.3066 37.7978 16.7781C38.8034 17.9598 39.3084 18.5507 39.6038 19.1667C39.9411 19.8722 40.1162 20.6444 40.1162 21.4264C40.1162 22.2085 39.9411 22.9806 39.6038 23.6862C39.3105 24.3022 38.8055 24.893 37.7978 26.0748C37.5238 26.3794 37.2671 26.6991 37.0288 27.0323C36.6431 27.6074 36.3753 28.2534 36.2411 28.9327C36.1824 29.2303 36.1572 29.5383 36.1091 30.1543C35.9854 31.7006 35.9247 32.4758 35.6963 33.1212C35.4357 33.8581 35.0135 34.5274 34.4606 35.0799C33.9078 35.6324 33.2383 36.0542 32.5012 36.3144C31.8559 36.5448 31.0828 36.6056 29.5345 36.7271C28.9185 36.7774 28.6126 36.8026 28.3151 36.8612C27.6351 36.9954 26.9884 37.2632 26.4127 37.6491C26.0802 37.8874 25.7612 38.1441 25.4573 38.418C24.2756 39.4237 23.6848 39.9266 23.0688 40.222C22.3633 40.5594 21.5912 40.7345 20.8092 40.7345C20.0272 40.7345 19.2551 40.5594 18.5495 40.222C17.9315 39.9287 17.3406 39.4258 16.1611 38.418C15.8564 38.1441 15.5368 37.8874 15.2036 37.6491C14.6278 37.2632 13.9812 36.9954 13.3012 36.8612C12.8975 36.794 12.4904 36.7492 12.0818 36.7271C10.5335 36.6056 9.76036 36.5427 9.11505 36.3144C8.37799 36.0542 7.70848 35.6324 7.15561 35.0799C6.60274 34.5274 6.18053 33.8581 5.91994 33.1212C5.69157 32.4758 5.63081 31.7006 5.50719 30.1543C5.48627 29.7449 5.4422 29.3371 5.3752 28.9327C5.2408 28.2534 4.97304 27.6075 4.58742 27.0323C4.41981 26.7809 4.21867 26.5462 3.8185 26.0748C2.81282 24.893 2.30789 24.3022 2.01247 23.6862C1.67511 22.9806 1.5 22.2085 1.5 21.4264C1.5 20.6444 1.67511 19.8722 2.01247 19.1667C2.30789 18.5507 2.81073 17.9598 3.8185 16.7781C4.21867 16.3066 4.41981 16.072 4.58742 15.8205C4.97304 15.2454 5.2408 14.5994 5.3752 13.9201C5.43386 13.6226 5.45901 13.3146 5.50719 12.6986C5.63081 11.1523 5.69157 10.3791 5.91994 9.73166C6.18075 8.99451 6.60328 8.3251 7.15652 7.77255C7.70977 7.22 8.3797 6.79833 9.11715 6.53847C9.76246 6.31008 10.5356 6.24722 12.0839 6.1257C12.6999 6.07541 13.0058 6.05027 13.3033 5.9916C13.9833 5.85746 14.6299 5.58968 15.2057 5.20378C15.4571 5.03616 15.6897 4.83711 16.159 4.43481Z" stroke="black" stroke-width="2.31697"/>
<path d="M14.5227 27.7133L27.0936 15.1417" stroke="black" stroke-width="2.31697" stroke-linecap="round"/>
<path d="M28.1412 26.6656C28.1412 27.2213 27.9205 27.7543 27.5276 28.1472C27.1347 28.5401 26.6017 28.7609 26.0461 28.7609C25.4904 28.7609 24.9575 28.5401 24.5646 28.1472C24.1717 27.7543 23.9509 27.2213 23.9509 26.6656C23.9509 26.1099 24.1717 25.577 24.5646 25.184C24.9575 24.7911 25.4904 24.5703 26.0461 24.5703C26.6017 24.5703 27.1347 24.7911 27.5276 25.184C27.9205 25.577 28.1412 26.1099 28.1412 26.6656ZM17.6654 16.1893C17.6654 16.745 17.4447 17.2779 17.0518 17.6708C16.6589 18.0638 16.126 18.2845 15.5703 18.2845C15.0146 18.2845 14.4817 18.0638 14.0888 17.6708C13.6959 17.2779 13.4751 16.745 13.4751 16.1893C13.4751 15.6336 13.6959 15.1006 14.0888 14.7077C14.4817 14.3147 15.0146 14.094 15.5703 14.094C16.126 14.094 16.6589 14.3147 17.0518 14.7077C17.4447 15.1006 17.6654 15.6336 17.6654 16.1893Z" fill="black"/>
</svg>
