<svg width="70" height="70" viewBox="0 0 70 70" fill="none" xmlns="http://www.w3.org/2000/svg">
<path d="M35 55.3934C34.2265 55.3934 33.4846 55.0861 32.9376 54.5391C32.3906 53.9921 32.0833 53.2503 32.0833 52.4767C32.0833 51.7032 32.3906 50.9613 32.9376 50.4143C33.4846 49.8673 34.2265 49.5601 35 49.5601C35.7736 49.5601 36.5154 49.8673 37.0624 50.4143C37.6094 50.9613 37.9167 51.7032 37.9167 52.4767C37.9167 53.2503 37.6094 53.9921 37.0624 54.5391C36.5154 55.0861 35.7736 55.3934 35 55.3934ZM28.8575 47.9501C28.4978 48.6172 27.8924 49.1181 27.1698 49.3466C26.4471 49.5751 25.6639 49.5134 24.9859 49.1744C24.308 48.8355 23.7887 48.2459 23.5379 47.5307C23.2871 46.8154 23.3247 46.0306 23.6425 45.3426C24.6982 43.2345 26.3197 41.4619 28.3255 40.2231C30.3314 38.9843 32.6424 38.3282 35 38.3282C37.3576 38.3282 39.6686 38.9843 41.6745 40.2231C43.6803 41.4619 45.3018 43.2345 46.3575 45.3426C46.5429 45.6864 46.6574 46.0639 46.6941 46.4528C46.7308 46.8417 46.689 47.234 46.5712 47.6064C46.4534 47.9788 46.2621 48.3238 46.0084 48.6208C45.7548 48.9179 45.4441 49.161 45.0947 49.3357C44.7453 49.5104 44.3644 49.6131 43.9746 49.6378C43.5848 49.6624 43.1939 49.6086 42.8253 49.4793C42.4567 49.3501 42.1178 49.1481 41.8287 48.8854C41.5397 48.6227 41.3063 48.3047 41.1425 47.9501C40.5734 46.8079 39.697 45.8471 38.612 45.1755C37.5269 44.5039 36.2761 44.1481 35 44.1481C33.7239 44.1481 32.4731 44.5039 31.388 45.1755C30.303 45.8471 29.4267 46.8079 28.8575 47.9501ZM19.8333 39.6521C19.6035 39.9586 19.3156 40.2167 18.986 40.4119C18.6564 40.607 18.2917 40.7353 17.9125 40.7895C17.1467 40.8989 16.3688 40.6996 15.75 40.2355C15.1312 39.7713 14.722 39.0804 14.6127 38.3146C14.5585 37.9354 14.5795 37.5493 14.6746 37.1783C14.7696 36.8072 14.9369 36.4586 15.1667 36.1521C17.477 33.0747 20.4718 30.5771 23.9141 28.8569C27.3564 27.1368 31.1518 26.2413 35 26.2413C38.8482 26.2413 42.6436 27.1368 46.0859 28.8569C49.5282 30.5771 52.523 33.0747 54.8333 36.1521C55.0631 36.4586 55.2304 36.8072 55.3254 37.1783C55.4205 37.5493 55.4415 37.9354 55.3874 38.3146C55.3332 38.6938 55.2049 39.0586 55.0097 39.3882C54.8146 39.7177 54.5564 40.0057 54.25 40.2355C53.9436 40.4653 53.5949 40.6325 53.2239 40.7276C52.8528 40.8226 52.4667 40.8437 52.0875 40.7895C51.7084 40.7353 51.3436 40.607 51.014 40.4119C50.6844 40.2167 50.3965 39.9586 50.1667 39.6521C48.3997 37.2992 46.1094 35.3896 43.4771 34.0744C40.8448 32.7593 37.9426 32.0746 35 32.0746C32.0574 32.0746 29.1552 32.7593 26.5229 34.0744C23.8906 35.3896 21.6003 37.2992 19.8333 39.6521ZM10.9171 31.1063C10.3911 31.6445 9.67746 31.9587 8.92529 31.983C8.17312 32.0073 7.44066 31.7399 6.88102 31.2368C6.32138 30.7336 5.97789 30.0337 5.92233 29.2831C5.86678 28.5326 6.10346 27.7897 6.58292 27.2096C20.7083 11.5267 44.8788 10.2551 60.5763 24.3717C61.5738 25.2671 62.5217 26.2151 63.4171 27.2096C63.6733 27.4942 63.871 27.8265 63.9988 28.1875C64.1267 28.5485 64.1821 28.9311 64.1621 29.3135C64.1421 29.6959 64.0469 30.0707 63.882 30.4163C63.7172 30.7619 63.4858 31.0717 63.2013 31.328C62.9167 31.5842 62.5844 31.7819 62.2234 31.9097C61.8624 32.0376 61.4798 32.093 61.0974 32.073C60.715 32.0529 60.3402 31.9578 59.9946 31.7929C59.6489 31.6281 59.3392 31.3967 59.0829 31.1121C58.3235 30.2666 57.5193 29.4624 56.6738 28.703C43.3738 16.7417 22.8871 17.8121 10.9171 31.1063Z" fill="white"/>
</svg>
