<svg width="40" height="39" viewBox="0 0 40 39" fill="none" xmlns="http://www.w3.org/2000/svg">
<path fill-rule="evenodd" clip-rule="evenodd" d="M8.6913 14.3678C9.93272 14.3678 11.1233 13.7673 12.0011 12.6984C12.8789 11.6295 13.3721 10.1797 13.3721 8.66801C13.3721 7.15632 12.8789 5.70655 12.0011 4.63763C11.1233 3.56871 9.93272 2.96819 8.6913 2.96819C7.44989 2.96819 6.25932 3.56871 5.38151 4.63763C4.50369 5.70655 4.01054 7.15632 4.01054 8.66801C4.01054 10.1797 4.50369 11.6295 5.38151 12.6984C6.25932 13.7673 7.44989 14.3678 8.6913 14.3678ZM8.6913 17.2177C9.61333 17.2177 10.5263 16.9966 11.3782 16.5669C12.23 16.1373 13.004 15.5075 13.656 14.7136C14.308 13.9197 14.8251 12.9771 15.178 11.9398C15.5308 10.9025 15.7124 9.79077 15.7124 8.66801C15.7124 7.54524 15.5308 6.43347 15.178 5.39617C14.8251 4.35887 14.308 3.41636 13.656 2.62244C13.004 1.82853 12.23 1.19876 11.3782 0.769096C10.5263 0.339432 9.61333 0.118286 8.6913 0.118286C6.82918 0.118286 5.04333 1.01906 3.72661 2.62244C2.40989 4.22583 1.67017 6.40048 1.67017 8.66801C1.67017 10.9355 2.40989 13.1102 3.72661 14.7136C5.04333 16.317 6.82918 17.2177 8.6913 17.2177Z" fill="black"/>
<path fill-rule="evenodd" clip-rule="evenodd" d="M6.00925 14.5597C6.11823 14.7362 6.20469 14.9458 6.26368 15.1766C6.32267 15.4075 6.35304 15.6549 6.35304 15.9048C6.35304 16.1547 6.32267 16.4021 6.26368 16.633C6.20469 16.8638 6.11823 17.0734 6.00925 17.2499L5.2182 18.5305C3.69587 21.0028 2.84058 24.3554 2.84038 27.8513V34.9038C2.84038 35.4076 2.71709 35.8909 2.49764 36.2472C2.27819 36.6035 1.98054 36.8036 1.67019 36.8036C1.35984 36.8036 1.06219 36.6035 0.842741 36.2472C0.623287 35.8909 0.5 35.4076 0.5 34.9038V27.8513C0.500332 23.3478 1.60229 19.0288 3.56356 15.844L4.35226 14.5597C4.46096 14.3827 4.5901 14.2424 4.73226 14.1466C4.87443 14.0508 5.02684 14.0015 5.18076 14.0015C5.33468 14.0015 5.48709 14.0508 5.62925 14.1466C5.77142 14.2424 5.90055 14.3827 6.00925 14.5597ZM33.607 13.4197C33.498 13.5962 33.4116 13.8059 33.3526 14.0367C33.2936 14.2675 33.2632 14.515 33.2632 14.7649C33.2632 15.0148 33.2936 15.2622 33.3526 15.493C33.4116 15.7239 33.498 15.9335 33.607 16.11L34.398 17.3905C35.1519 18.6146 35.75 20.0677 36.1579 21.667C36.5659 23.2663 36.7759 24.9804 36.7759 26.7114V34.9038C36.7759 35.4076 36.8992 35.8909 37.1186 36.2472C37.3381 36.6035 37.6357 36.8036 37.9461 36.8036C38.2564 36.8036 38.5541 36.6035 38.7735 36.2472C38.993 35.8909 39.1163 35.4076 39.1163 34.9038V26.7114C39.1159 22.2078 38.014 17.8888 36.0527 14.7041L35.264 13.4197C35.1553 13.2428 35.0262 13.1024 34.884 13.0067C34.7418 12.9109 34.5894 12.8616 34.4355 12.8616C34.2816 12.8616 34.1292 12.9109 33.987 13.0067C33.8448 13.1024 33.7157 13.2428 33.607 13.4197Z" fill="black"/>
<path fill-rule="evenodd" clip-rule="evenodd" d="M29.7547 14.3678C28.5133 14.3678 27.3227 13.7673 26.4449 12.6984C25.5671 11.6295 25.0739 10.1797 25.0739 8.66801C25.0739 7.15633 25.5671 5.70655 26.4449 4.63763C27.3227 3.56871 28.5133 2.96819 29.7547 2.96819C30.9961 2.96819 32.1867 3.56871 33.0645 4.63763C33.9423 5.70655 34.4355 7.15633 34.4355 8.66801C34.4355 10.1797 33.9423 11.6295 33.0645 12.6984C32.1867 13.7673 30.9961 14.3678 29.7547 14.3678ZM29.7547 17.2177C28.8327 17.2177 27.9197 16.9966 27.0678 16.5669C26.216 16.1373 25.442 15.5075 24.79 14.7136C24.138 13.9197 23.6209 12.9771 23.268 11.9398C22.9152 10.9025 22.7336 9.79078 22.7336 8.66801C22.7336 7.54524 22.9152 6.43347 23.268 5.39617C23.6209 4.35887 24.138 3.41636 24.79 2.62244C25.442 1.82853 26.216 1.19876 27.0678 0.769096C27.9197 0.339432 28.8327 0.118286 29.7547 0.118286C31.6168 0.118286 33.4027 1.01906 34.7194 2.62244C36.0361 4.22583 36.7758 6.40048 36.7758 8.66801C36.7758 10.9355 36.0361 13.1102 34.7194 14.7136C33.4027 16.317 31.6168 17.2177 29.7547 17.2177ZM19.223 26.4799C17.6712 26.4799 16.183 27.2306 15.0858 28.5667C13.9885 29.9029 13.3721 31.7151 13.3721 33.6047V37.3096C13.3721 37.6875 13.2488 38.0499 13.0293 38.3172C12.8099 38.5844 12.5122 38.7345 12.2019 38.7345C11.8915 38.7345 11.5939 38.5844 11.3744 38.3172C11.155 38.0499 11.0317 37.6875 11.0317 37.3096V33.6047C11.0317 30.9593 11.8947 28.4222 13.4309 26.5515C14.967 24.6809 17.0505 23.63 19.223 23.63C21.3955 23.63 23.479 24.6809 25.0151 26.5515C26.5513 28.4222 27.4143 30.9593 27.4143 33.6047V37.3096C27.4143 37.6875 27.291 38.0499 27.0716 38.3172C26.8521 38.5844 26.5545 38.7345 26.2441 38.7345C25.9338 38.7345 25.6361 38.5844 25.4167 38.3172C25.1972 38.0499 25.0739 37.6875 25.0739 37.3096V33.6047C25.0739 32.6691 24.9226 31.7426 24.6286 30.8782C24.3345 30.0138 23.9036 29.2283 23.3602 28.5667C22.8169 27.9051 22.1719 27.3803 21.4621 27.0223C20.7522 26.6642 19.9914 26.4799 19.223 26.4799Z" fill="black"/>
<path fill-rule="evenodd" clip-rule="evenodd" d="M19.223 22.2051C20.4644 22.2051 21.655 21.6046 22.5328 20.5357C23.4106 19.4667 23.9038 18.017 23.9038 16.5053C23.9038 14.9936 23.4106 13.5438 22.5328 12.4749C21.655 11.406 20.4644 10.8055 19.223 10.8055C17.9816 10.8055 16.791 11.406 15.9132 12.4749C15.0354 13.5438 14.5423 14.9936 14.5423 16.5053C14.5423 18.017 15.0354 19.4667 15.9132 20.5357C16.791 21.6046 17.9816 22.2051 19.223 22.2051ZM19.223 25.055C21.0851 25.055 22.871 24.1542 24.1877 22.5509C25.5044 20.9475 26.2441 18.7728 26.2441 16.5053C26.2441 14.2378 25.5044 12.0631 24.1877 10.4597C22.871 8.85634 21.0851 7.95557 19.223 7.95557C17.3609 7.95557 15.575 8.85634 14.2583 10.4597C12.9416 12.0631 12.2019 14.2378 12.2019 16.5053C12.2019 18.7728 12.9416 20.9475 14.2583 22.5509C15.575 24.1542 17.3609 25.055 19.223 25.055Z" fill="black"/>
</svg>
