<svg width="298" height="59" viewBox="0 0 298 59" fill="none" xmlns="http://www.w3.org/2000/svg">
<path d="M10.4223 50L41.3031 50" stroke="black" stroke-width="0.772325"/>
<path d="M255.539 50L286.42 50" stroke="black" stroke-width="0.772325"/>
<path d="M11.3768 25C10.9155 25 10.5365 24.86 10.2399 24.5799C9.95985 24.2833 9.8198 23.9208 9.8198 23.4924V9.2075C9.8198 8.77912 9.95985 8.42488 10.2399 8.14478C10.5365 7.84821 10.899 7.69992 11.3274 7.69992H19.3596C19.7879 7.69992 20.1422 7.83997 20.4223 8.12006C20.7188 8.38368 20.8671 8.72969 20.8671 9.15807C20.8671 9.52055 20.7188 9.84183 20.4223 10.1219C20.1422 10.402 19.7879 10.5421 19.3596 10.5421H12.6867L12.9091 10.2455V15.2131L12.7361 14.8918H18.2474C18.6758 14.8918 19.03 15.0319 19.3101 15.312C19.6067 15.5756 19.755 15.9216 19.755 16.35C19.755 16.7124 19.6067 17.0337 19.3101 17.3138C19.03 17.5939 18.6758 17.734 18.2474 17.734H12.6867L12.9091 17.5115V23.4924C12.9091 23.9208 12.7526 24.2833 12.4395 24.5799C12.143 24.86 11.7887 25 11.3768 25ZM25.2051 7.69992H33.4844C33.9128 7.69992 34.267 7.83997 34.5471 8.12006C34.8437 8.38368 34.992 8.72969 34.992 9.15807C34.992 9.56998 34.8437 9.90774 34.5471 10.1714C34.267 10.4185 33.9128 10.5421 33.4844 10.5421H26.5644L26.7868 10.1219V14.9412L26.5891 14.7435H32.3723C32.8006 14.7435 33.1549 14.8836 33.435 15.1637C33.7316 15.4273 33.8798 15.7733 33.8798 16.2017C33.8798 16.6136 33.7316 16.9513 33.435 17.215C33.1549 17.4621 32.8006 17.5857 32.3723 17.5857H26.6632L26.7868 17.388V22.3803L26.5891 22.1578H33.4844C33.9128 22.1578 34.267 22.3061 34.5471 22.6027C34.8437 22.8828 34.992 23.2123 34.992 23.5913C34.992 24.0032 34.8437 24.3409 34.5471 24.6046C34.267 24.8682 33.9128 25 33.4844 25H25.2051C24.7767 25 24.4142 24.86 24.1177 24.5799C23.8376 24.2833 23.6975 23.9208 23.6975 23.4924V9.2075C23.6975 8.77912 23.8376 8.42488 24.1177 8.14478C24.4142 7.84821 24.7767 7.69992 25.2051 7.69992ZM39.3977 7.67521C39.6284 7.67521 39.8673 7.74111 40.1144 7.87292C40.3781 7.98825 40.5758 8.14478 40.7076 8.34249L46.7132 17.5857L45.4775 17.5363L51.6313 8.34249C51.9444 7.89763 52.3481 7.67521 52.8424 7.67521C53.2378 7.67521 53.592 7.81525 53.9051 8.09535C54.2181 8.37545 54.3746 8.73792 54.3746 9.18278V23.4924C54.3746 23.9208 54.2346 24.2833 53.9545 24.5799C53.6744 24.86 53.3037 25 52.8424 25C52.381 25 52.0021 24.86 51.7055 24.5799C51.4254 24.2833 51.2853 23.9208 51.2853 23.4924V11.8519L52.2492 12.0744L47.2075 19.7605C47.0592 19.9418 46.8697 20.0983 46.639 20.2301C46.4248 20.3619 46.2024 20.4196 45.9718 20.4031C45.7576 20.4196 45.5351 20.3619 45.3045 20.2301C45.0903 20.0983 44.909 19.9418 44.7607 19.7605L40.0403 12.2968L40.6829 10.9869V23.4924C40.6829 23.9208 40.5511 24.2833 40.2874 24.5799C40.0238 24.86 39.6778 25 39.2494 25C38.8375 25 38.4998 24.86 38.2361 24.5799C37.9725 24.2833 37.8407 23.9208 37.8407 23.4924V9.18278C37.8407 8.77088 37.989 8.41664 38.2856 8.12006C38.5986 7.82349 38.9693 7.67521 39.3977 7.67521ZM61.1794 23.4924C61.1794 23.9208 61.0229 24.2833 60.7098 24.5799C60.3968 24.86 60.0343 25 59.6224 25C59.1611 25 58.7903 24.86 58.5103 24.5799C58.2302 24.2833 58.0901 23.9208 58.0901 23.4924V9.2075C58.0901 8.77912 58.2384 8.42488 58.535 8.14478C58.8315 7.84821 59.2105 7.69992 59.6718 7.69992C60.0673 7.69992 60.4133 7.84821 60.7098 8.14478C61.0229 8.42488 61.1794 8.77912 61.1794 9.2075V23.4924ZM74.436 22.1084C74.8644 22.1084 75.2186 22.2485 75.4987 22.5286C75.7953 22.7922 75.9436 23.1382 75.9436 23.5666C75.9436 23.9785 75.7953 24.3245 75.4987 24.6046C75.2186 24.8682 74.8644 25 74.436 25H66.4038C65.9754 25 65.6129 24.86 65.3164 24.5799C65.0363 24.2833 64.8962 23.9208 64.8962 23.4924V9.2075C64.8962 8.77912 65.0445 8.42488 65.3411 8.14478C65.6377 7.84821 66.0166 7.69992 66.4779 7.69992C66.8734 7.69992 67.2194 7.84821 67.5159 8.14478C67.829 8.42488 67.9855 8.77912 67.9855 9.2075V22.5286L67.4418 22.1084H74.436ZM88.3243 7.62578C88.7033 7.62578 89.041 7.77406 89.3376 8.07063C89.6507 8.35073 89.8072 8.71321 89.8072 9.15807C89.8072 9.30636 89.7825 9.46288 89.733 9.62764C89.7001 9.77593 89.6342 9.92422 89.5353 10.0725L83.9252 18.1047L84.37 16.3994V23.4924C84.37 23.9208 84.2217 24.2833 83.9252 24.5799C83.6451 24.86 83.3155 25 82.9366 25C82.5247 25 82.1704 24.86 81.8739 24.5799C81.5938 24.2833 81.4537 23.9208 81.4537 23.4924V16.5971L81.6514 17.388L76.3131 10.2949C76.1484 10.0807 76.033 9.87479 75.9671 9.67707C75.9012 9.47936 75.8683 9.29812 75.8683 9.13336C75.8683 8.6885 76.0413 8.32602 76.3873 8.04592C76.7333 7.76582 77.0875 7.62578 77.45 7.62578C77.9113 7.62578 78.315 7.85644 78.661 8.31778L83.4061 14.8671L82.7141 14.7682L87.0886 8.36721C87.4346 7.87292 87.8465 7.62578 88.3243 7.62578ZM111.061 8.54021C111.489 8.7544 111.737 9.09216 111.802 9.5535C111.885 10.0148 111.769 10.435 111.456 10.8139C111.242 11.1105 110.962 11.2753 110.616 11.3082C110.287 11.3412 109.949 11.2753 109.603 11.1105C109.207 10.9293 108.787 10.7892 108.342 10.6904C107.914 10.5915 107.461 10.5421 106.983 10.5421C106.093 10.5421 105.294 10.6821 104.586 10.9622C103.894 11.2423 103.301 11.646 102.806 12.1732C102.312 12.684 101.933 13.2936 101.67 14.0021C101.422 14.7106 101.299 15.4932 101.299 16.35C101.299 17.355 101.439 18.2283 101.719 18.9697C102.016 19.7111 102.419 20.329 102.93 20.8233C103.441 21.3176 104.042 21.6883 104.734 21.9354C105.426 22.1661 106.176 22.2814 106.983 22.2814C107.428 22.2814 107.873 22.2402 108.318 22.1578C108.763 22.0755 109.191 21.9272 109.603 21.713C109.949 21.5482 110.287 21.4906 110.616 21.54C110.962 21.5894 111.25 21.7624 111.481 22.059C111.811 22.4709 111.926 22.8993 111.827 23.3441C111.745 23.7725 111.498 24.0856 111.086 24.2833C110.657 24.4975 110.212 24.6787 109.751 24.827C109.306 24.9588 108.853 25.0577 108.392 25.1236C107.93 25.206 107.461 25.2471 106.983 25.2471C105.797 25.2471 104.668 25.0577 103.597 24.6787C102.543 24.2998 101.595 23.7396 100.755 22.9981C99.9313 22.2567 99.2804 21.334 98.8026 20.2301C98.3248 19.1097 98.0859 17.8163 98.0859 16.35C98.0859 15.0813 98.3001 13.9115 98.7285 12.8405C99.1734 11.7696 99.7912 10.8469 100.582 10.0725C101.389 9.28164 102.337 8.67202 103.424 8.24364C104.512 7.79878 105.698 7.57635 106.983 7.57635C107.708 7.57635 108.417 7.65873 109.109 7.82349C109.801 7.98825 110.451 8.22716 111.061 8.54021ZM116.027 7.69992C116.423 7.69992 116.769 7.84821 117.065 8.14478C117.378 8.42488 117.535 8.77912 117.535 9.2075V23.4924C117.535 23.9208 117.378 24.2833 117.065 24.5799C116.752 24.86 116.39 25 115.978 25C115.517 25 115.146 24.86 114.866 24.5799C114.586 24.2833 114.446 23.9208 114.446 23.4924V9.2075C114.446 8.77912 114.594 8.42488 114.891 8.14478C115.187 7.84821 115.566 7.69992 116.027 7.69992ZM126.976 7.69992C127.437 7.69992 127.808 7.84821 128.088 8.14478C128.368 8.42488 128.508 8.77912 128.508 9.2075V23.4924C128.508 23.9208 128.36 24.2833 128.063 24.5799C127.783 24.86 127.404 25 126.926 25C126.531 25 126.177 24.86 125.864 24.5799C125.567 24.2833 125.419 23.9208 125.419 23.4924V9.2075C125.419 8.77912 125.575 8.42488 125.888 8.14478C126.202 7.84821 126.564 7.69992 126.976 7.69992ZM115.953 14.8918H126.976V17.734H115.953V14.8918ZM135.298 23.4924C135.298 23.9208 135.142 24.2833 134.829 24.5799C134.516 24.86 134.153 25 133.741 25C133.28 25 132.909 24.86 132.629 24.5799C132.349 24.2833 132.209 23.9208 132.209 23.4924V9.2075C132.209 8.77912 132.357 8.42488 132.654 8.14478C132.951 7.84821 133.33 7.69992 133.791 7.69992C134.186 7.69992 134.532 7.84821 134.829 8.14478C135.142 8.42488 135.298 8.77912 135.298 9.2075V23.4924ZM148.555 22.1084C148.983 22.1084 149.338 22.2485 149.618 22.5286C149.914 22.7922 150.063 23.1382 150.063 23.5666C150.063 23.9785 149.914 24.3245 149.618 24.6046C149.338 24.8682 148.983 25 148.555 25H140.523C140.094 25 139.732 24.86 139.435 24.5799C139.155 24.2833 139.015 23.9208 139.015 23.4924V9.2075C139.015 8.77912 139.164 8.42488 139.46 8.14478C139.757 7.84821 140.136 7.69992 140.597 7.69992C140.992 7.69992 141.338 7.84821 141.635 8.14478C141.948 8.42488 142.105 8.77912 142.105 9.2075V22.5286L141.561 22.1084H148.555ZM162.433 22.1084C162.861 22.1084 163.215 22.2485 163.495 22.5286C163.792 22.7922 163.94 23.1382 163.94 23.5666C163.94 23.9785 163.792 24.3245 163.495 24.6046C163.215 24.8682 162.861 25 162.433 25H154.401C153.972 25 153.61 24.86 153.313 24.5799C153.033 24.2833 152.893 23.9208 152.893 23.4924V9.2075C152.893 8.77912 153.041 8.42488 153.338 8.14478C153.634 7.84821 154.013 7.69992 154.475 7.69992C154.87 7.69992 155.216 7.84821 155.513 8.14478C155.826 8.42488 155.982 8.77912 155.982 9.2075V22.5286L155.439 22.1084H162.433ZM178.739 25.2471C177.569 25.2471 176.515 24.9918 175.576 24.481C174.653 23.9702 173.92 23.3029 173.376 22.4791C172.849 21.6553 172.585 20.7738 172.585 19.8347C172.585 19.0109 172.725 18.2612 173.005 17.5857C173.302 16.8937 173.739 16.2841 174.315 15.7568C174.909 15.2296 175.658 14.7847 176.564 14.4222L178.492 16.4241C177.339 16.6712 176.564 17.0502 176.169 17.561C175.79 18.0553 175.601 18.6649 175.601 19.3898C175.601 19.8841 175.724 20.3702 175.971 20.848C176.218 21.3093 176.622 21.6965 177.182 22.0096C177.742 22.3061 178.492 22.4544 179.431 22.4544C180.206 22.4544 180.898 22.2814 181.507 21.9354C182.133 21.5729 182.669 21.1034 183.114 20.5267C183.575 19.9335 183.946 19.2827 184.226 18.5743C184.522 17.8493 184.72 17.1161 184.819 16.3747C184.852 16.1111 184.951 15.9051 185.116 15.7568C185.297 15.6085 185.593 15.5344 186.005 15.5344C186.434 15.5344 186.771 15.7074 187.019 16.0534C187.266 16.3994 187.356 16.8031 187.29 17.2644C187.142 18.253 186.854 19.2251 186.425 20.1807C186.014 21.1198 185.453 21.9766 184.745 22.751C184.053 23.5089 183.204 24.1185 182.199 24.5799C181.211 25.0247 180.057 25.2471 178.739 25.2471ZM187.538 25.0494C187.34 25.0494 187.167 25.0247 187.019 24.9753C186.887 24.9259 186.78 24.8682 186.697 24.8023C185.511 23.7808 184.424 22.8416 183.435 21.9848C182.463 21.1116 181.565 20.2795 180.741 19.4887C179.917 18.6978 179.143 17.8905 178.418 17.0667C177.841 16.4076 177.314 15.8145 176.836 15.2872C176.358 14.76 175.971 14.2492 175.675 13.7549C175.395 13.2442 175.255 12.684 175.255 12.0744C175.255 11.267 175.469 10.5174 175.897 9.82536C176.342 9.11688 176.968 8.54845 177.775 8.12006C178.583 7.67521 179.538 7.45278 180.642 7.45278C181.779 7.45278 182.801 7.64225 183.707 8.02121C184.63 8.40016 185.247 8.90269 185.56 9.52878C185.577 9.54526 185.618 9.65236 185.684 9.85007C185.75 10.0313 185.783 10.2455 185.783 10.4926C185.783 10.8057 185.668 11.0776 185.437 11.3082C185.206 11.5389 184.893 11.6542 184.498 11.6542C184.234 11.6542 184.028 11.6048 183.88 11.5059C183.732 11.4071 183.616 11.3082 183.534 11.2094C183.171 10.7316 182.751 10.402 182.273 10.2208C181.812 10.0231 181.268 9.92422 180.642 9.92422C179.901 9.92422 179.332 10.1219 178.937 10.5174C178.558 10.9128 178.369 11.3824 178.369 11.9261C178.369 12.4368 178.55 12.9476 178.912 13.4584C179.275 13.9527 179.687 14.4222 180.148 14.8671C180.626 15.312 181.021 15.7074 181.334 16.0534C181.845 16.5971 182.413 17.182 183.04 17.8081C183.682 18.4177 184.325 19.0191 184.967 19.6123C185.61 20.1889 186.203 20.7326 186.747 21.2434C187.307 21.7377 187.76 22.1496 188.106 22.4791C188.32 22.6768 188.477 22.8746 188.576 23.0723C188.691 23.27 188.749 23.5089 188.749 23.789C188.749 24.0032 188.65 24.2668 188.452 24.5799C188.271 24.8929 187.966 25.0494 187.538 25.0494ZM205.882 7.69992C207.464 7.69992 208.642 8.07064 209.416 8.81207C210.191 9.5535 210.578 10.6492 210.578 12.0991C210.578 12.8735 210.388 13.5572 210.009 14.1504C209.63 14.727 209.07 15.1801 208.329 15.5097C207.587 15.8227 206.673 15.9792 205.585 15.9792L205.684 14.8671C206.195 14.8671 206.78 14.9412 207.439 15.0895C208.098 15.2213 208.732 15.4685 209.342 15.831C209.968 16.177 210.479 16.6712 210.874 17.3138C211.286 17.9399 211.492 18.7473 211.492 19.7358C211.492 20.8233 211.311 21.713 210.948 22.405C210.602 23.097 210.141 23.6325 209.564 24.0114C208.988 24.3904 208.37 24.654 207.711 24.8023C207.052 24.9341 206.417 25 205.808 25H199.654C199.226 25 198.863 24.86 198.567 24.5799C198.286 24.2833 198.146 23.9208 198.146 23.4924V9.2075C198.146 8.77912 198.286 8.42488 198.567 8.14478C198.863 7.84821 199.226 7.69992 199.654 7.69992H205.882ZM205.437 10.6162H201.038L201.359 10.2208V14.6941L201.063 14.4717H205.511C205.989 14.4717 206.417 14.3151 206.796 14.0021C207.175 13.689 207.365 13.2359 207.365 12.6428C207.365 11.9343 207.184 11.4236 206.821 11.1105C206.475 10.781 206.014 10.6162 205.437 10.6162ZM205.635 17.388H201.137L201.359 17.1902V22.405L201.112 22.1578H205.808C206.566 22.1578 207.167 21.9601 207.612 21.5647C208.057 21.1528 208.279 20.5432 208.279 19.7358C208.279 18.9944 208.131 18.4589 207.834 18.1294C207.538 17.7999 207.184 17.5939 206.772 17.5115C206.36 17.4292 205.981 17.388 205.635 17.388ZM215.849 7.69992H224.128C224.556 7.69992 224.911 7.83997 225.191 8.12006C225.487 8.38368 225.636 8.72969 225.636 9.15807C225.636 9.56998 225.487 9.90774 225.191 10.1714C224.911 10.4185 224.556 10.5421 224.128 10.5421H217.208L217.43 10.1219V14.9412L217.233 14.7435H223.016C223.444 14.7435 223.798 14.8836 224.079 15.1637C224.375 15.4273 224.523 15.7733 224.523 16.2017C224.523 16.6136 224.375 16.9513 224.079 17.215C223.798 17.4621 223.444 17.5857 223.016 17.5857H217.307L217.43 17.388V22.3803L217.233 22.1578H224.128C224.556 22.1578 224.911 22.3061 225.191 22.6027C225.487 22.8828 225.636 23.2123 225.636 23.5913C225.636 24.0032 225.487 24.3409 225.191 24.6046C224.911 24.8682 224.556 25 224.128 25H215.849C215.42 25 215.058 24.86 214.761 24.5799C214.481 24.2833 214.341 23.9208 214.341 23.4924V9.2075C214.341 8.77912 214.481 8.42488 214.761 8.14478C215.058 7.84821 215.42 7.69992 215.849 7.69992ZM234.836 11.5801L229.498 24.135C229.382 24.448 229.201 24.6952 228.954 24.8764C228.723 25.0412 228.468 25.1236 228.188 25.1236C227.743 25.1236 227.413 25 227.199 24.7529C226.985 24.5057 226.878 24.2009 226.878 23.8384C226.878 23.6901 226.903 23.5336 226.952 23.3688L233.106 8.58964C233.238 8.26011 233.435 8.00473 233.699 7.82349C233.979 7.64225 234.276 7.56811 234.589 7.60106C234.885 7.60106 235.157 7.69168 235.404 7.87292C235.668 8.03768 235.857 8.27659 235.973 8.58964L242.053 23.0723C242.135 23.2865 242.176 23.4842 242.176 23.6654C242.176 24.1103 242.028 24.4645 241.731 24.7281C241.451 24.9918 241.138 25.1236 240.792 25.1236C240.496 25.1236 240.224 25.033 239.976 24.8517C239.746 24.6705 239.565 24.4233 239.433 24.1103L234.119 11.7284L234.836 11.5801ZM230.264 21.1198L231.623 18.2777H238.296L238.765 21.1198H230.264ZM256.31 7.67521C256.739 7.67521 257.085 7.82349 257.348 8.12006C257.612 8.40016 257.744 8.7544 257.744 9.18278V18.1294C257.744 19.4969 257.447 20.7079 256.854 21.7624C256.277 22.8169 255.478 23.6407 254.457 24.2339C253.435 24.827 252.249 25.1236 250.898 25.1236C249.547 25.1236 248.352 24.827 247.314 24.2339C246.293 23.6407 245.485 22.8169 244.892 21.7624C244.316 20.7079 244.027 19.4969 244.027 18.1294V9.18278C244.027 8.7544 244.176 8.40016 244.472 8.12006C244.769 7.82349 245.148 7.67521 245.609 7.67521C245.988 7.67521 246.326 7.82349 246.622 8.12006C246.935 8.40016 247.092 8.7544 247.092 9.18278V18.1294C247.092 18.9532 247.265 19.6699 247.611 20.2795C247.973 20.8727 248.443 21.334 249.02 21.6636C249.613 21.9931 250.239 22.1578 250.898 22.1578C251.606 22.1578 252.265 21.9931 252.875 21.6636C253.485 21.334 253.979 20.8727 254.358 20.2795C254.737 19.6699 254.926 18.9532 254.926 18.1294V9.18278C254.926 8.7544 255.05 8.40016 255.297 8.12006C255.544 7.82349 255.882 7.67521 256.31 7.67521ZM267.31 25C266.849 25 266.47 24.86 266.173 24.5799C265.877 24.2833 265.729 23.9208 265.729 23.4924V9.15807H268.941V23.4924C268.941 23.9208 268.785 24.2833 268.472 24.5799C268.175 24.86 267.788 25 267.31 25ZM261.848 10.5421C261.42 10.5421 261.058 10.4103 260.761 10.1466C260.481 9.88302 260.341 9.53702 260.341 9.10864C260.341 8.68026 260.481 8.34249 260.761 8.09535C261.058 7.83173 261.42 7.69992 261.848 7.69992H272.822C273.25 7.69992 273.604 7.83173 273.884 8.09535C274.181 8.35897 274.329 8.70497 274.329 9.13336C274.329 9.56174 274.181 9.90774 273.884 10.1714C273.604 10.4185 273.25 10.5421 272.822 10.5421H261.848ZM288.188 7.62578C288.566 7.62578 288.904 7.77406 289.201 8.07063C289.514 8.35073 289.67 8.71321 289.67 9.15807C289.67 9.30636 289.646 9.46288 289.596 9.62764C289.563 9.77593 289.497 9.92422 289.399 10.0725L283.788 18.1047L284.233 16.3994V23.4924C284.233 23.9208 284.085 24.2833 283.788 24.5799C283.508 24.86 283.179 25 282.8 25C282.388 25 282.034 24.86 281.737 24.5799C281.457 24.2833 281.317 23.9208 281.317 23.4924V16.5971L281.515 17.388L276.176 10.2949C276.012 10.0807 275.896 9.87479 275.83 9.67707C275.764 9.47936 275.731 9.29812 275.731 9.13336C275.731 8.6885 275.904 8.32602 276.25 8.04592C276.596 7.76582 276.951 7.62578 277.313 7.62578C277.775 7.62578 278.178 7.85644 278.524 8.31778L283.269 14.8671L282.577 14.7682L286.952 8.36721C287.298 7.87292 287.71 7.62578 288.188 7.62578ZM60.0256 58.085C58.9354 58.085 57.923 57.9009 56.9884 57.5327C56.0539 57.1504 55.2398 56.6195 54.546 55.9398C53.8522 55.2602 53.3141 54.4673 52.9318 53.5611C52.5495 52.6407 52.3584 51.6425 52.3584 50.5664C52.3584 49.4903 52.5495 48.4991 52.9318 47.5929C53.3141 46.6726 53.8522 45.8726 54.546 45.1929C55.2398 44.5133 56.0539 43.9894 56.9884 43.6212C57.923 43.2389 58.9354 43.0478 60.0256 43.0478C61.0309 43.0478 61.9796 43.2106 62.8716 43.5363C63.7637 43.8619 64.5353 44.3575 65.1867 45.023L64.7407 45.4903C64.0752 44.8531 63.346 44.4 62.553 44.131C61.7743 43.8478 60.9389 43.7062 60.0469 43.7062C59.0557 43.7062 58.1353 43.8832 57.2858 44.2372C56.4362 44.577 55.6929 45.0584 55.0557 45.6814C54.4327 46.3044 53.9442 47.0336 53.5902 47.869C53.2504 48.6903 53.0805 49.5894 53.0805 50.5664C53.0805 51.5434 53.2504 52.4496 53.5902 53.285C53.9442 54.1062 54.4327 54.8283 55.0557 55.4513C55.6929 56.0743 56.4362 56.5628 57.2858 56.9168C58.1353 57.2566 59.0557 57.4265 60.0469 57.4265C60.9389 57.4265 61.7743 57.292 62.553 57.023C63.346 56.7398 64.0752 56.2726 64.7407 55.6212L65.1867 56.0885C64.5353 56.754 63.7637 57.2566 62.8716 57.5965C61.9796 57.9221 61.0309 58.085 60.0256 58.085ZM66.1496 58L73.031 43.1327H73.7319L80.6133 58H79.8274L73.2221 43.6212H73.5407L66.9354 58H66.1496ZM68.5283 53.646L68.8044 53.0301H77.8947L78.1708 53.646H68.5283ZM82.1777 58.085C82.0219 58.085 81.8662 58.0708 81.7104 58.0425C81.5688 58.0283 81.406 58 81.2219 57.9575L81.3281 57.2991C81.583 57.3558 81.8237 57.3841 82.0502 57.3841C82.7016 57.3841 83.2325 57.1292 83.6432 56.6195C84.0679 56.1097 84.3936 55.2885 84.6201 54.1558C84.8467 53.023 84.9954 51.5221 85.0662 49.6531L85.2998 43.1327H94.7511V58H94.0502V43.5363L94.3051 43.7912H85.7246L85.9582 43.5363L85.7246 49.6743C85.6821 51.1611 85.583 52.4425 85.4272 53.5186C85.2715 54.5805 85.0449 55.4442 84.7476 56.1097C84.4644 56.7752 84.1104 57.2708 83.6856 57.5965C83.2609 57.9221 82.7582 58.085 82.1777 58.085ZM106.652 58.085C105.561 58.085 104.549 57.9009 103.615 57.5327C102.68 57.1504 101.866 56.6195 101.172 55.9398C100.478 55.2602 99.9402 54.4673 99.5579 53.5611C99.1756 52.6407 98.9845 51.6425 98.9845 50.5664C98.9845 49.4903 99.1756 48.4991 99.5579 47.5929C99.9402 46.6726 100.478 45.8726 101.172 45.1929C101.866 44.5133 102.68 43.9894 103.615 43.6212C104.549 43.2389 105.561 43.0478 106.652 43.0478C107.756 43.0478 108.776 43.2389 109.71 43.6212C110.645 43.9894 111.452 44.5133 112.131 45.1929C112.825 45.8726 113.363 46.6726 113.746 47.5929C114.142 48.4991 114.34 49.4903 114.34 50.5664C114.34 51.6425 114.142 52.6407 113.746 53.5611C113.363 54.4673 112.825 55.2602 112.131 55.9398C111.452 56.6195 110.645 57.1504 109.71 57.5327C108.776 57.9009 107.756 58.085 106.652 58.085ZM106.652 57.4265C107.643 57.4265 108.563 57.2566 109.413 56.9168C110.262 56.577 110.999 56.0956 111.622 55.4726C112.259 54.8496 112.747 54.1274 113.087 53.3062C113.441 52.4708 113.618 51.5575 113.618 50.5664C113.618 49.5752 113.441 48.669 113.087 47.8478C112.747 47.0124 112.259 46.2832 111.622 45.6602C110.999 45.0372 110.262 44.5558 109.413 44.2159C108.563 43.8761 107.643 43.7062 106.652 43.7062C105.675 43.7062 104.761 43.8761 103.912 44.2159C103.062 44.5558 102.319 45.0372 101.682 45.6602C101.059 46.2832 100.57 47.0124 100.216 47.8478C99.8765 48.669 99.7066 49.5752 99.7066 50.5664C99.7066 51.5575 99.8765 52.4708 100.216 53.3062C100.57 54.1274 101.059 54.8496 101.682 55.4726C102.319 56.0956 103.062 56.577 103.912 56.9168C104.761 57.2566 105.675 57.4265 106.652 57.4265ZM129.706 43.1327H130.428V58H129.706V43.1327ZM119.278 58H118.555V43.1327H119.278V58ZM129.833 50.7788H119.15V50.1204H129.833V50.7788ZM151.965 58L145.742 50.4602L146.358 50.1416L152.815 58H151.965ZM141.537 58V43.1327H142.259V58H141.537ZM142.004 50.7788V50.1204H146.422V50.7788H142.004ZM146.379 50.6301L145.742 50.4389L151.583 43.1327H152.411L146.379 50.6301ZM155.641 58V43.1327H160.802C162.034 43.1327 163.088 43.331 163.966 43.7274C164.858 44.1239 165.538 44.6903 166.005 45.4265C166.473 46.1487 166.706 47.0265 166.706 48.0602C166.706 49.0938 166.473 49.9788 166.005 50.715C165.538 51.4513 164.858 52.0177 163.966 52.4142C163.088 52.8106 162.034 53.0088 160.802 53.0088H156.044L156.363 52.669V58H155.641ZM156.363 52.669L156.044 52.3504H160.844C162.515 52.3504 163.789 51.9752 164.667 51.2248C165.559 50.4743 166.005 49.4195 166.005 48.0602C166.005 46.7009 165.559 45.6531 164.667 44.9168C163.789 44.1664 162.515 43.7912 160.844 43.7912H156.044L156.363 43.4513V52.669ZM167.263 58L174.144 43.1327H174.845L181.726 58H180.941L174.335 43.6212H174.654L168.049 58H167.263ZM169.641 53.646L169.918 53.0301H179.008L179.284 53.646H169.641ZM191.027 58.085C189.936 58.085 188.924 57.9009 187.99 57.5327C187.055 57.1504 186.241 56.6195 185.547 55.9398C184.853 55.2602 184.315 54.4673 183.933 53.5611C183.551 52.6407 183.359 51.6425 183.359 50.5664C183.359 49.4903 183.551 48.4991 183.933 47.5929C184.315 46.6726 184.853 45.8726 185.547 45.1929C186.241 44.5133 187.055 43.9894 187.99 43.6212C188.924 43.2389 189.936 43.0478 191.027 43.0478C192.032 43.0478 192.981 43.2106 193.873 43.5363C194.765 43.8619 195.536 44.3575 196.188 45.023L195.742 45.4903C195.076 44.8531 194.347 44.4 193.554 44.131C192.775 43.8478 191.94 43.7062 191.048 43.7062C190.057 43.7062 189.136 43.8832 188.287 44.2372C187.437 44.577 186.694 45.0584 186.057 45.6814C185.434 46.3044 184.945 47.0336 184.591 47.869C184.251 48.6903 184.082 49.5894 184.082 50.5664C184.082 51.5434 184.251 52.4496 184.591 53.285C184.945 54.1062 185.434 54.8283 186.057 55.4513C186.694 56.0743 187.437 56.5628 188.287 56.9168C189.136 57.2566 190.057 57.4265 191.048 57.4265C191.94 57.4265 192.775 57.292 193.554 57.023C194.347 56.7398 195.076 56.2726 195.742 55.6212L196.188 56.0885C195.536 56.754 194.765 57.2566 193.873 57.5965C192.981 57.9221 192.032 58.085 191.027 58.085ZM205.857 58.085C204.766 58.085 203.754 57.9009 202.819 57.5327C201.885 57.1504 201.071 56.6195 200.377 55.9398C199.683 55.2602 199.145 54.4673 198.763 53.5611C198.381 52.6407 198.189 51.6425 198.189 50.5664C198.189 49.4903 198.381 48.4991 198.763 47.5929C199.145 46.6726 199.683 45.8726 200.377 45.1929C201.071 44.5133 201.885 43.9894 202.819 43.6212C203.754 43.2389 204.766 43.0478 205.857 43.0478C206.961 43.0478 207.981 43.2389 208.915 43.6212C209.85 43.9894 210.657 44.5133 211.336 45.1929C212.03 45.8726 212.568 46.6726 212.95 47.5929C213.347 48.4991 213.545 49.4903 213.545 50.5664C213.545 51.6425 213.347 52.6407 212.95 53.5611C212.568 54.4673 212.03 55.2602 211.336 55.9398C210.657 56.6195 209.85 57.1504 208.915 57.5327C207.981 57.9009 206.961 58.085 205.857 58.085ZM205.857 57.4265C206.848 57.4265 207.768 57.2566 208.618 56.9168C209.467 56.577 210.204 56.0956 210.827 55.4726C211.464 54.8496 211.952 54.1274 212.292 53.3062C212.646 52.4708 212.823 51.5575 212.823 50.5664C212.823 49.5752 212.646 48.669 212.292 47.8478C211.952 47.0124 211.464 46.2832 210.827 45.6602C210.204 45.0372 209.467 44.5558 208.618 44.2159C207.768 43.8761 206.848 43.7062 205.857 43.7062C204.88 43.7062 203.966 43.8761 203.117 44.2159C202.267 44.5558 201.524 45.0372 200.887 45.6602C200.264 46.2832 199.775 47.0124 199.421 47.8478C199.081 48.669 198.912 49.5752 198.912 50.5664C198.912 51.5575 199.081 52.4708 199.421 53.3062C199.775 54.1274 200.264 54.8496 200.887 55.4726C201.524 56.0956 202.267 56.577 203.117 56.9168C203.966 57.2566 204.88 57.4265 205.857 57.4265ZM220.378 58V43.5363L220.633 43.7912H214.941V43.1327H226.537V43.7912H220.845L221.1 43.5363V58H220.378ZM235.318 48.6761C237.06 48.6761 238.384 49.0655 239.29 49.8442C240.196 50.6088 240.649 51.7487 240.649 53.2637C240.649 54.8212 240.175 56.0035 239.226 56.8106C238.278 57.6035 236.89 58 235.064 58H229.541V43.1327H230.264V48.6761H235.318ZM235.127 57.3841C236.713 57.3841 237.91 57.0442 238.717 56.3646C239.524 55.6708 239.927 54.6442 239.927 53.285C239.927 51.9398 239.531 50.9416 238.738 50.2903C237.945 49.6248 236.741 49.292 235.127 49.292H230.264V57.3841H235.127ZM243.517 58V43.1327H244.239V58H243.517Z" fill="black"/>
</svg>
