<svg width="80" height="80" viewBox="0 0 80 80" fill="none" xmlns="http://www.w3.org/2000/svg">
<path d="M47.5733 34.8166L60 6.66663M31.0533 35.44L16.6667 6.66663M42.5367 33.4933L29.45 6.66663M47.8667 6.66663L44.4 15M20 53.3333C20 58.6376 22.1071 63.7247 25.8579 67.4754C29.6086 71.2262 34.6957 73.3333 40 73.3333C45.3043 73.3333 50.3914 71.2262 54.1421 67.4754C57.8929 63.7247 60 58.6376 60 53.3333C60 48.029 57.8929 42.9419 54.1421 39.1912C50.3914 35.4404 45.3043 33.3333 40 33.3333C34.6957 33.3333 29.6086 35.4404 25.8579 39.1912C22.1071 42.9419 20 48.029 20 53.3333Z" stroke="white" stroke-width="3" stroke-linecap="round" stroke-linejoin="round"/>
<path d="M35 50L41.6667 45V61.6667" stroke="white" stroke-width="3" stroke-linecap="round" stroke-linejoin="round"/>
</svg>
