<svg width="40" height="39" viewBox="0 0 40 39" fill="none" xmlns="http://www.w3.org/2000/svg">
<path d="M25.4397 1.72729H12.5676C11.5008 1.72729 10.4776 2.1511 9.72325 2.90547C8.96888 3.65984 8.54507 4.68298 8.54507 5.74982V33.103C8.54507 34.1698 8.96888 35.193 9.72325 35.9474C10.4776 36.7017 11.5008 37.1255 12.5676 37.1255H25.4397C26.5065 37.1255 27.5297 36.7017 28.284 35.9474C29.0384 35.193 29.4622 34.1698 29.4622 33.103V5.74982C29.4622 4.68298 29.0384 3.65984 28.284 2.90547C27.5297 2.1511 26.5065 1.72729 25.4397 1.72729ZM19.0036 35.5165C17.6682 35.5165 16.5901 34.4385 16.5901 33.103C16.5901 31.7675 17.6682 30.6895 19.0036 30.6895C20.3391 30.6895 21.4172 31.7675 21.4172 33.103C21.4172 34.4385 20.3391 35.5165 19.0036 35.5165ZM26.2442 29.0805H11.7631V6.55433H26.2442V29.0805Z" fill="black"/>
</svg>
