<svg width="28" height="29" viewBox="0 0 28 29" fill="none" xmlns="http://www.w3.org/2000/svg">
<g clip-path="url(#clip0_247_94)">
<path fill-rule="evenodd" clip-rule="evenodd" d="M2.18169 2.51655C0.280212 4.51002 0.280212 7.71845 0.280212 14.1354V15.2697C0.280212 21.6867 0.280212 24.8951 2.18169 26.8886C4.08316 28.882 7.14351 28.882 13.2643 28.882H14.3463C20.4671 28.882 23.5274 28.882 25.4289 26.8886C27.3304 24.8951 27.3304 21.6867 27.3304 15.2697V14.1354C27.3304 7.71845 27.3304 4.51002 25.4289 2.51655C23.5274 0.523071 20.4671 0.523071 14.3463 0.523071H13.2643C7.14351 0.523071 4.08316 0.523071 2.18169 2.51655ZM4.84499 9.14898C4.99151 16.5223 8.50802 20.9534 14.6732 20.9534H15.0227V16.735C17.2881 16.9713 19.0012 18.7083 19.6887 20.9534H22.8897C22.0106 17.5976 19.6999 15.7424 18.2572 15.0335C19.6999 14.1591 21.7287 12.0321 22.2133 9.14898H19.3054C18.6742 11.4886 16.8035 13.6155 15.0227 13.8164V9.14898H12.1147V17.3258C10.3113 16.8532 8.03464 14.5608 7.93321 9.14898H4.84499Z" fill="white"/>
</g>
<defs>
<clipPath id="clip0_247_94">
<rect width="27.0501" height="28.359" fill="white" transform="translate(0.280212 0.523071)"/>
</clipPath>
</defs>
</svg>
