<svg width="80" height="80" viewBox="0 0 80 80" fill="none" xmlns="http://www.w3.org/2000/svg">
<path d="M40 63.3067C39.1159 63.3067 38.2681 62.9555 37.643 62.3304C37.0179 61.7052 36.6667 60.8574 36.6667 59.9733C36.6667 59.0893 37.0179 58.2414 37.643 57.6163C38.2681 56.9912 39.1159 56.64 40 56.64C40.8841 56.64 41.7319 56.9912 42.357 57.6163C42.9821 58.2414 43.3333 59.0893 43.3333 59.9733C43.3333 60.8574 42.9821 61.7052 42.357 62.3304C41.7319 62.9555 40.8841 63.3067 40 63.3067ZM32.98 54.8C32.5689 55.5624 31.8771 56.1349 31.0512 56.396C30.2253 56.6572 29.3301 56.5867 28.5554 56.1993C27.7806 55.8119 27.187 55.1381 26.9005 54.3207C26.6139 53.5033 26.6567 52.6064 27.02 51.82C28.2265 49.4108 30.0796 47.385 32.372 45.9692C34.6644 44.5534 37.3056 43.8036 40 43.8036C42.6944 43.8036 45.3356 44.5534 47.628 45.9692C49.9204 47.385 51.7735 49.4108 52.98 51.82C53.1919 52.2129 53.3227 52.6444 53.3646 53.0888C53.4066 53.5333 53.3589 53.9816 53.2243 54.4072C53.0897 54.8329 52.8709 55.2271 52.581 55.5666C52.2912 55.9061 51.9361 56.1839 51.5368 56.3836C51.1375 56.5832 50.7022 56.7006 50.2567 56.7288C49.8111 56.757 49.3645 56.6954 48.9432 56.5477C48.522 56.4 48.1347 56.1692 47.8043 55.869C47.4739 55.5688 47.2072 55.2053 47.02 54.8C46.3695 53.4947 45.368 52.3966 44.128 51.629C42.8879 50.8615 41.4584 50.4549 40 50.4549C38.5416 50.4549 37.1121 50.8615 35.872 51.629C34.632 52.3966 33.6305 53.4947 32.98 54.8ZM22.6667 45.3167C22.404 45.6669 22.075 45.9619 21.6983 46.1849C21.3216 46.4079 20.9047 46.5546 20.4714 46.6165C19.5962 46.7415 18.7072 46.5138 18 45.9833C17.2928 45.4529 16.8252 44.6632 16.7002 43.7881C16.6383 43.3547 16.6623 42.9134 16.771 42.4894C16.8796 42.0653 17.0707 41.6669 17.3333 41.3167C19.9737 37.7996 23.3964 34.9452 27.3304 32.9793C31.2645 31.0134 35.6021 29.99 40 29.99C44.3979 29.99 48.7355 31.0134 52.6696 32.9793C56.6036 34.9452 60.0263 37.7996 62.6667 41.3167C62.9293 41.6669 63.1204 42.0653 63.229 42.4894C63.3377 42.9134 63.3617 43.3547 63.2998 43.7881C63.2379 44.2214 63.0913 44.6383 62.8682 45.015C62.6452 45.3916 62.3502 45.7207 62 45.9833C61.6498 46.246 61.2513 46.4371 60.8273 46.5457C60.4032 46.6543 59.9619 46.6784 59.5286 46.6165C59.0953 46.5546 58.6784 46.4079 58.3017 46.1849C57.925 45.9619 57.596 45.6669 57.3333 45.3167C55.3139 42.6275 52.6965 40.4452 49.6881 38.9421C46.6798 37.4391 43.3629 36.6567 40 36.6567C36.6371 36.6567 33.3202 37.4391 30.3119 38.9421C27.3035 40.4452 24.6861 42.6275 22.6667 45.3167ZM12.4767 35.55C11.8756 36.1651 11.06 36.5241 10.2003 36.5519C9.34071 36.5797 8.50361 36.2741 7.86403 35.6991C7.22444 35.1241 6.83187 34.3241 6.76838 33.4664C6.70489 32.6087 6.97539 31.7596 7.52334 31.0967C23.6667 13.1733 51.29 11.72 69.23 27.8533C70.37 28.8767 71.4533 29.96 72.4767 31.0967C72.7695 31.4219 72.9954 31.8016 73.1415 32.2142C73.2876 32.6267 73.351 33.064 73.3281 33.5011C73.3052 33.9381 73.1964 34.3664 73.008 34.7614C72.8196 35.1564 72.5552 35.5105 72.23 35.8033C71.9048 36.0962 71.525 36.3221 71.1125 36.4682C70.6999 36.6143 70.2626 36.6777 69.8256 36.6548C69.3885 36.6319 68.9603 36.5231 68.5652 36.3347C68.1702 36.1463 67.8162 35.8819 67.5233 35.5567C66.6554 34.5904 65.7363 33.6713 64.77 32.8033C49.57 19.1333 26.1567 20.3567 12.4767 35.55Z" fill="white"/>
</svg>
