<svg width="50" height="50" viewBox="0 0 50 50" fill="none" xmlns="http://www.w3.org/2000/svg">
<path d="M28.2083 37.5C27.2222 37.5012 26.2659 37.1628 25.5 36.5417L14.875 27.7708C14.4583 27.4391 14.1218 27.0177 13.8906 26.538C13.6593 26.0583 13.5392 25.5326 13.5392 25C13.5392 24.4674 13.6593 23.9417 13.8906 23.462C14.1218 22.9823 14.4583 22.5609 14.875 22.2292L25.5 13.4583C26.1396 12.9458 26.9104 12.6233 27.7244 12.5275C28.5385 12.4318 29.363 12.5666 30.1041 12.9167C30.7483 13.2006 31.297 13.6639 31.6849 14.2513C32.0728 14.8387 32.2834 15.5253 32.2916 16.2292V33.7708C32.2834 34.4747 32.0728 35.1613 31.6849 35.7487C31.297 36.3361 30.7483 36.7994 30.1041 37.0833C29.5086 37.3542 28.8625 37.4962 28.2083 37.5Z" fill="white"/>
</svg>
