<svg width="80" height="80" viewBox="0 0 80 80" fill="none" xmlns="http://www.w3.org/2000/svg">
<path d="M56.0267 35.36C56.3366 35.0501 56.5824 34.6822 56.7502 34.2772C56.9179 33.8723 57.0042 33.4383 57.0042 33C57.0042 32.5617 56.9179 32.1277 56.7502 31.7228C56.5824 31.3178 56.3366 30.9499 56.0267 30.64C55.7167 30.3301 55.3488 30.0842 54.9439 29.9165C54.539 29.7488 54.105 29.6625 53.6667 29.6625C53.2284 29.6625 52.7944 29.7488 52.3894 29.9165C51.9845 30.0842 51.6166 30.3301 51.3067 30.64L37 44.9533L29.36 37.3067C29.0501 36.9967 28.6822 36.7509 28.2772 36.5832C27.8723 36.4154 27.4383 36.3291 27 36.3291C26.5617 36.3291 26.1277 36.4154 25.7228 36.5832C25.3178 36.7509 24.9499 36.9967 24.64 37.3067C24.3301 37.6166 24.0842 37.9845 23.9165 38.3894C23.7488 38.7944 23.6625 39.2284 23.6625 39.6667C23.6625 40.105 23.7488 40.539 23.9165 40.9439C24.0842 41.3488 24.3301 41.7167 24.64 42.0267L34.64 52.0267C34.9496 52.3371 35.3175 52.5834 35.7224 52.7514C36.1274 52.9195 36.5616 53.006 37 53.006C37.4384 53.006 37.8726 52.9195 38.2776 52.7514C38.6825 52.5834 39.0504 52.3371 39.36 52.0267L56.0267 35.36ZM40.3333 8C31.4928 8 23.0143 11.5119 16.7631 17.7631C10.5119 24.0143 7 32.4928 7 41.3333C7 50.1739 10.5119 58.6523 16.7631 64.9036C23.0143 71.1548 31.4928 74.6667 40.3333 74.6667C49.1739 74.6667 57.6523 71.1548 63.9036 64.9036C70.1548 58.6523 73.6667 50.1739 73.6667 41.3333C73.6667 32.4928 70.1548 24.0143 63.9036 17.7631C57.6523 11.5119 49.1739 8 40.3333 8ZM13.6667 41.3333C13.6667 34.2609 16.4762 27.4781 21.4772 22.4772C26.4781 17.4762 33.2609 14.6667 40.3333 14.6667C47.4058 14.6667 54.1885 17.4762 59.1895 22.4772C64.1905 27.4781 67 34.2609 67 41.3333C67 48.4058 64.1905 55.1885 59.1895 60.1895C54.1885 65.1905 47.4058 68 40.3333 68C33.2609 68 26.4781 65.1905 21.4772 60.1895C16.4762 55.1885 13.6667 48.4058 13.6667 41.3333Z" fill="white"/>
</svg>
