<svg width="80" height="80" viewBox="0 0 80 80" fill="none" xmlns="http://www.w3.org/2000/svg">
<path d="M40 50C41.3261 50 42.5979 49.4732 43.5355 48.5355C44.4732 47.5978 45 46.326 45 45C45 43.6739 44.4732 42.4021 43.5355 41.4644C42.5979 40.5267 41.3261 40 40 40C38.6739 40 37.4022 40.5267 36.4645 41.4644C35.5268 42.4021 35 43.6739 35 45C35 46.326 35.5268 47.5978 36.4645 48.5355C37.4022 49.4732 38.6739 50 40 50ZM51.995 28.59L43.795 18.26C44.4185 17.5343 44.8207 16.6449 44.9538 15.6975C45.087 14.7501 44.9456 13.7844 44.5463 12.9149C44.147 12.0455 43.5067 11.3089 42.7013 10.7925C41.8959 10.2761 40.9592 10.0016 40.0025 10.0016C39.0458 10.0016 38.1091 10.2761 37.3037 10.7925C36.4983 11.3089 35.858 12.0455 35.4587 12.9149C35.0595 13.7844 34.918 14.7501 35.0512 15.6975C35.1843 16.6449 35.5865 17.5343 36.21 18.26L28 28.585C27.6498 29.0272 27.1604 29.3381 26.6112 29.467C26.062 29.5959 25.4854 29.5353 24.975 29.295L12.425 23.38C12.609 22.3506 12.4657 21.2894 12.0152 20.3457C11.5646 19.4021 10.8296 18.6234 9.91338 18.1193C8.9972 17.6152 7.94603 17.411 6.90776 17.5355C5.86949 17.66 4.89639 18.1069 4.12536 18.8133C3.35434 19.5198 2.8242 20.4501 2.60954 21.4736C2.39488 22.497 2.50649 23.562 2.92869 24.5187C3.35088 25.4754 4.0624 26.2756 4.96314 26.8068C5.86387 27.338 6.90849 27.5734 7.95001 27.48L14.45 59.98C14.7339 61.3945 15.4985 62.6673 16.614 63.5823C17.7295 64.4973 19.1272 64.9982 20.57 65H59.42C60.8652 65.0002 62.2658 64.4997 63.3835 63.5835C64.5011 62.6673 65.2667 61.3921 65.55 59.975L72.05 27.48C73.0915 27.5734 74.1361 27.338 75.0369 26.8068C75.9376 26.2756 76.6491 25.4754 77.0713 24.5187C77.4935 23.562 77.6051 22.497 77.3905 21.4736C77.1758 20.4501 76.6457 19.5198 75.8746 18.8133C75.1036 18.1069 74.1305 17.66 73.0923 17.5355C72.054 17.411 71.0028 17.6152 70.0866 18.1193C69.1704 18.6234 68.4354 19.4021 67.9848 20.3457C67.5343 21.2894 67.391 22.3506 67.575 23.38L55.015 29.3C54.5046 29.5403 53.928 29.6009 53.3788 29.472C52.8296 29.3431 52.3402 29.0322 51.99 28.59H51.995ZM39.995 21.52L48.08 31.7C49.1316 33.0239 50.5996 33.9538 52.246 34.3386C53.8924 34.7234 55.6205 34.5407 57.15 33.82L66.575 29.38L60.65 58.995C60.5934 59.2782 60.4404 59.5331 60.2171 59.7163C59.9938 59.8996 59.7139 59.9998 59.425 60H20.575C20.2861 59.9998 20.0063 59.8996 19.7829 59.7163C19.5596 59.5331 19.4066 59.2782 19.35 58.995L13.425 29.38L22.85 33.82C24.3795 34.5407 26.1076 34.7234 27.754 34.3386C29.4004 33.9538 30.8685 33.0239 31.92 31.7L39.995 21.52Z" fill="white"/>
</svg>
