<svg width="80" height="80" viewBox="0 0 80 80" fill="none" xmlns="http://www.w3.org/2000/svg">
<path d="M15 70C18.6818 70 21.6667 67.0151 21.6667 63.3333C21.6667 59.6515 18.6818 56.6666 15 56.6666C11.3181 56.6666 8.33333 59.6515 8.33333 63.3333C8.33333 67.0151 11.3181 70 15 70Z" stroke="white" stroke-width="3" stroke-linejoin="round"/>
<path d="M15 23.3333C18.6818 23.3333 21.6667 20.3487 21.6667 16.6667C21.6667 12.9848 18.6818 10 15 10C11.3181 10 8.33333 12.9848 8.33333 16.6667C8.33333 20.3487 11.3181 23.3333 15 23.3333Z" stroke="white" stroke-width="3" stroke-linejoin="round"/>
<path d="M15 46.6667C18.6818 46.6667 21.6667 43.682 21.6667 40C21.6667 36.318 18.6818 33.3334 15 33.3334C11.3181 33.3334 8.33333 36.318 8.33333 40C8.33333 43.682 11.3181 46.6667 15 46.6667Z" stroke="white" stroke-width="3" stroke-linejoin="round"/>
<path d="M35 40H71.6667" stroke="white" stroke-width="3" stroke-linecap="round" stroke-linejoin="round"/>
<path d="M35 63.3334H71.6667" stroke="white" stroke-width="3" stroke-linecap="round" stroke-linejoin="round"/>
<path d="M35 16.6666H71.6667" stroke="white" stroke-width="3" stroke-linecap="round" stroke-linejoin="round"/>
</svg>
