<svg width="33" height="43" viewBox="0 0 33 43" fill="none" xmlns="http://www.w3.org/2000/svg">
<path d="M10.0951 10C10.0951 8.3424 10.8007 6.75269 12.0567 5.58058C13.3127 4.40848 15.0162 3.75 16.7925 3.75C18.5687 3.75 20.2722 4.40848 21.5282 5.58058C22.7842 6.75269 23.4898 8.3424 23.4898 10C23.4898 11.6576 22.7842 13.2473 21.5282 14.4194C20.2722 15.5915 18.5687 16.25 16.7925 16.25C15.0162 16.25 13.3127 15.5915 12.0567 14.4194C10.8007 13.2473 10.0951 11.6576 10.0951 10ZM16.7925 0C13.9505 0 11.2248 1.05357 9.21524 2.92893C7.20564 4.8043 6.07666 7.34784 6.07666 10C6.07666 12.6522 7.20564 15.1957 9.21524 17.0711C11.2248 18.9464 13.9505 20 16.7925 20C19.6345 20 22.3601 18.9464 24.3697 17.0711C26.3793 15.1957 27.5083 12.6522 27.5083 10C27.5083 7.34784 26.3793 4.8043 24.3697 2.92893C22.3601 1.05357 19.6345 0 16.7925 0ZM6.74639 25C5.14776 25 3.61461 25.5926 2.48421 26.6475C1.3538 27.7024 0.71875 29.1332 0.71875 30.625V31.32C0.721898 31.4938 0.734416 31.6674 0.756255 31.84C0.977482 33.7003 1.69398 35.4793 2.84048 37.015C5.03186 39.935 9.21639 42.5 16.7925 42.5C24.3685 42.5 28.5531 39.9375 30.7445 37.0125C31.8913 35.4769 32.6078 33.6978 32.8287 31.8375C32.8476 31.6655 32.8601 31.4929 32.8662 31.32V30.625C32.8662 29.1332 32.2311 27.7024 31.1007 26.6475C29.9703 25.5926 28.4372 25 26.8385 25H6.74639ZM4.73718 31.2675V30.625C4.73718 30.1277 4.94886 29.6508 5.32566 29.2992C5.70246 28.9475 6.21352 28.75 6.74639 28.75H26.8385C27.3714 28.75 27.8825 28.9475 28.2593 29.2992C28.6361 29.6508 28.8478 30.1277 28.8478 30.625V31.2675L28.829 31.4675C28.6763 32.6877 28.2034 33.8538 27.452 34.8625C26.1313 36.625 23.2809 38.75 16.7925 38.75C10.304 38.75 7.45364 36.625 6.13023 34.8625C5.37985 33.8536 4.9078 32.6874 4.75593 31.4675C4.7478 31.401 4.74155 31.3343 4.73718 31.2675Z" fill="white"/>
</svg>
