<svg width="40" height="39" viewBox="0 0 40 39" fill="none" xmlns="http://www.w3.org/2000/svg">
<path fill-rule="evenodd" clip-rule="evenodd" d="M12.9699 9.15771C12.9699 8.6777 12.8471 8.20566 12.6133 7.78642C12.3795 7.36718 12.0425 7.01467 11.6341 6.76237C11.2257 6.51007 10.7597 6.36635 10.2801 6.34486C9.8006 6.32338 9.32353 6.42484 8.89424 6.63961L5.67622 8.24862C5.20868 8.48253 4.81549 8.84199 4.54069 9.28673C4.26589 9.73147 4.12033 10.2439 4.12031 10.7667V16.6107H3.71806C3.398 16.6107 3.09106 16.7378 2.86475 16.9641C2.63844 17.1904 2.5113 17.4974 2.5113 17.8174V27.4715C2.5113 29.0717 3.147 30.6065 4.27856 31.738C5.41011 32.8696 6.94483 33.5053 8.54509 33.5053C10.1453 33.5053 11.6801 32.8696 12.8116 31.738C13.9432 30.6065 14.5789 29.0717 14.5789 27.4715V17.8174C14.5789 17.4974 14.4517 17.1904 14.2254 16.9641C13.9991 16.7378 13.6922 16.6107 13.3721 16.6107H12.9699V9.15771ZM4.92481 19.0242H12.1654V27.4715C12.1654 27.9469 12.0717 28.4177 11.8898 28.8569C11.7079 29.2961 11.4412 29.6952 11.105 30.0314C10.7688 30.3676 10.3697 30.6342 9.93051 30.8162C9.49128 30.9981 9.02051 31.0917 8.54509 31.0917C8.06967 31.0917 7.5989 30.9981 7.15967 30.8162C6.72044 30.6342 6.32134 30.3676 5.98517 30.0314C5.649 29.6952 5.38233 29.2961 5.20039 28.8569C5.01846 28.4177 4.92481 27.9469 4.92481 27.4715V19.0242ZM10.5564 16.6107V9.15771C10.5565 9.08905 10.539 9.0215 10.5057 8.96148C10.4723 8.90147 10.4242 8.85099 10.3658 8.81486C10.3074 8.77873 10.2407 8.75815 10.1721 8.75507C10.1035 8.752 10.0353 8.76653 9.97389 8.7973L6.75587 10.4063C6.68902 10.4398 6.63282 10.4913 6.5936 10.5549C6.55438 10.6186 6.53368 10.6919 6.53383 10.7667V16.6107H10.5564ZM27.0487 6.95659C24.4859 6.95603 22.0195 7.93399 20.1535 9.69068C18.2874 11.4474 17.1624 13.8502 17.0084 16.4084C16.8544 18.9666 17.6828 21.4871 19.3246 23.4551C20.9664 25.423 23.2976 26.6898 25.842 26.9968V31.0917H22.2217C21.9016 31.0917 21.5947 31.2189 21.3684 31.4452C21.1421 31.6715 21.0149 31.9785 21.0149 32.2985C21.0149 32.6186 21.1421 32.9255 21.3684 33.1518C21.5947 33.3781 21.9016 33.5053 22.2217 33.5053H31.8757C32.1958 33.5053 32.5027 33.3781 32.729 33.1518C32.9554 32.9255 33.0825 32.6186 33.0825 32.2985C33.0825 31.9785 32.9554 31.6715 32.729 31.4452C32.5027 31.2189 32.1958 31.0917 31.8757 31.0917H28.2555V26.9968C30.795 26.6837 33.1196 25.4145 34.7562 23.4476C36.3928 21.4807 37.2182 18.964 37.0644 16.4099C36.9106 13.8558 35.7891 11.4564 33.9284 9.70009C32.0676 7.94379 29.6074 6.96271 27.0487 6.95659ZM27.0487 24.6557C28.0524 24.6557 29.0462 24.458 29.9735 24.0739C30.9008 23.6898 31.7433 23.1269 32.453 22.4172C33.1627 21.7075 33.7257 20.8649 34.1097 19.9377C34.4938 19.0104 34.6915 18.0166 34.6915 17.0129C34.6915 16.0092 34.4938 15.0154 34.1097 14.0881C33.7257 13.1609 33.1627 12.3183 32.453 11.6086C31.7433 10.8989 30.9008 10.336 29.9735 9.95188C29.0462 9.56779 28.0524 9.3701 27.0487 9.3701C25.0217 9.3701 23.0777 10.1753 21.6444 11.6086C20.2111 13.0419 19.4059 14.9859 19.4059 17.0129C19.4059 19.0399 20.2111 20.9839 21.6444 22.4172C23.0777 23.8505 25.0217 24.6557 27.0487 24.6557Z" fill="black"/>
</svg>
